<mxfile host="app.diagrams.net" modified="2023-12-12T02:19:04.034Z" agent="Mozilla/5.0 (Windows NT 10.0; Win64; x64) AppleWebKit/537.36 (KHTML, like Gecko) Chrome/119.0.0.0 Safari/537.36" etag="VfN8_6JyokD81QjMwv_R" version="22.1.7" type="github">
  <diagram name="페이지-1" id="qI5pWHhUFvj5yl1K8VJW">
    <mxGraphModel dx="1434" dy="790" grid="0" gridSize="10" guides="1" tooltips="1" connect="1" arrows="1" fold="1" page="1" pageScale="1" pageWidth="827" pageHeight="1169" math="0" shadow="0">
      <root>
        <mxCell id="0" />
        <mxCell id="1" parent="0" />
        <mxCell id="EUon6yqRxLXq_V7a_OoF-12" value="" style="shape=image;verticalLabelPosition=bottom;labelBackgroundColor=default;verticalAlign=top;aspect=fixed;imageAspect=0;image=data:image/png,iVBORw0KGgoAAAANSUhEUgAAA2IAAAIJCAYAAADH646/AAAAAXNSR0IArs4c6QAAAARnQU1BAACxjwv8YQUAAAAJcEhZcwAADsMAAA7DAcdvqGQAAILtSURBVHhe7d0J/E3V/v/xJanIkKiUkuEWpSK3gaJoksbbcA2hNBIiU3Xzk6HUVeRyCaVCJP7SbVIaVJcuuhJ1MxYSkpKKlAb+3uu71rEd53zH893fM7yej8d+nL3WHs4+5+yz9/7stfZaxbZu3brLAAAAIKOVLl3ajWVv27ZtbgxAQRRbv349gRgAAEAGUxBWtmxZl8rexo0bzc6dO10KQH7t514BAAAAACEhEAMAAACAkBGIAQAAAEDICMQAAAAAIGQEYgAAAAAQMgIxAAAAAAgZgRgAAAAAhIxADAAAAABCRiAGAAAAACEjEAMAAACAkBGIAQAAAEDICMQAAAAAIGQEYgAAAAAQMgIxAAAAAAgZgRgAAAAAhIxADAAAAABCRiAGAAAAACEjEAMAAACAkBGIAQAAAEDICMQAAAAAIGQEYgAAAAAQMgIxAAAAAAgZgRgAAAAAhIxADAAAAABCRiAGAAAAACEjEAMAAACAkBGIAQAAAEDICMQAAAAAIGQEYgAAAAAQMgIxAAAAAAgZgRgAAAAAhIxADAAAAABCRiAGAAAAACEjEAMAAACAkBGIAQAAAEDICMQAAAAAIGQEYkCK+vzzz82FF15oKleuHHe4/PLLzYgRI8zmzZvdUuGYPn16ZBv++9//utzktn37djNhwgTTokULU7NmTbvt55xzjunfv79ZuXKl2bVrl5sz/7Zs2WJat25t161XpQtDcN+45557zC+//OKmAEDiBY/5sYbatWubG264wUyePNkea8MW3D6Ne/Hyi0oyH7t37txp/vOf/5gOHTqYM888026jftf27dubd955x/z6669uzoIJ6zf5xz/+EXmforxOIRAD0tjChQvNQw89ZE+ACiYQm05+1113nfnb3/5m5syZY7Zt2xbJf/zxx81ll11m/vWvfyUkGEs0XdRMnDjR/PDDDy4HAJLL999/b9566y3Ts2dP88ADDxRJMJZsUunYrW3VTcm//vWv5uWXXzbr1q2z+fpdX3nlFdOmTRvTr1+/pPxddd5evHixefvtt11OciEQAzLARx99ZKZOnWp+++03lwNPd/EmTZqU7R0xBWZ///vfzccff+xyip5OLp988om55ZZbzGuvvWbvVno1atQwb775plm/fr3d7oMOOshNAYCiNX78ePPuu++6VNG6+uqr7XFSg8bDkIrH7tmzZ5vnnnvOpWLT7/rss88m1Q1LBYZjxowxzZs33yfgvfPOOyO//emnn+5yw0cgBqSBtm3b2tIbf1DR8MUXX5hx48aZo48+2s6zZMmSSEkP9ti0aZP58MMP7fipp55qXnrpJfvd6TtUAKsqhKI7gP/+97/teDLQnUidqN977z2XAwBF75///Ode5yINqpHx8MMPm9KlS9t5Pvjgg4y9MZhqx279TnPnzrXXD/r99Dvq99TvquuO4O+qc+SPP/5ox5PB66+/bu6///6kvvYhEAPS1P77729OO+0086c//cmmixcvbvbbb89fXiVBr776qq1S4J+JUr1vVR1R0BbrrtaXX35pqyfo2SnNr9dHHnkkV8+gaX0vvPBC5L3uvffeSDUGX1dbdeN1YPdUP1715GNNCy7z6aefmieffDKyXaqKqRNHbu7M7dixI7IdJ510kq3zru9ODj/8cHPzzTeb4447zqZ14omusx/9PWrQuPJyW2den8s/F6DPFaSSOuUHpylP2+rvKutVaf8dBdcX6zkDfV49D3fttdfaeXw9f9X/D96dlWB9/eeff97eydW8+pzaXwYNGhT6M4gAUkupUqVM/fr1TZUqVWxax6Q//vjDjot//kjHW38c1XhOxyQd51988UVbfVxplWrNmDHD/P77727u7GX3PFK8Y7tKh6K3Kbfn01Q8dut38tuh30+/o35PUYndVVddZS655BKb/uqrr8y3335rx4NiXTsorfzcyst1gs+744473FzGjmsefx7169MQXSMmL+f16Ge/dZ0wduzYyGfVc+ex9hmPQAxIU7qLpYPLZ599ZtMqevd3rXSSeuKJJ8xtt91mH7L1d4tU6qOHqW+88UazYMECm+fNmzfPHmT0zJQ/COpVBzOdMNesWWPzYtFJSM9Y6cCo99J67rrrrsjBvCB+/vln07dvX3PfffdFtkvPIrRr1y5Xz3VVrFjRHHvssXZcgaLu5qpEzB80dQDWyVIH1+iqIjqJ9erVa6/vUYPGladpyRakrF692laJ0fNwuogRX89f9f8VWPvANJqqcLZs2dLOq8+p/WX48OE88wEgW6oWNnPmTBuUyJFHHmkOPPBAO67zkaq16byjEgx/HNW4jkmjRo2KG1hpWseOHW3tBZk/f7659dZbbXW03AZjseh4NnDgwJjHdh0/daHtA8n8nE/zo6iO3fqdqlevbsf1+6kELFiiqfP40KFD7TlS1SpVvdLT+VeBsQLH6GsHpZWv6bm5aRqWgpzXdb2lxkx0TeI/q5471++mYDkWAjEgDTzzzDP24Ofv7mioWrWqPQHogKu7hToIq1RMdDDViUSB2bBhw2zgofkUiKgUSOOqYuAPjrrDpRObDiyqvqdAR3eypk6daqs+KuCbMmVK3BOfgjgFMTqYNW3a1B7IDjnkEDe1YHRyKlasmH0Qd+3atfYu4IknnmjfS9v0zTffuDljK1eunG1dUt+FllFgedZZZ5kGDRrYOuS62xrrDp8+q77DadOm2WV1d0/fjwZfVUPTRo4cmeuSsdxSUP2///3PNG7c2Kb1qnT0STDa1q1b7edTlRj9bqNHj7a//bJly0z37t3tPDo5x6vnrxOtpuu31/etfUH0+2s9AOBLHoKDjskKbETHHh2zdNwW1WjQsUjH37vvvnuf46iOOTqHxKJjvo6zetWF8rnnnmvz/9//+392HfmlIFDHd/HbtHz5cnP99dfb7dQxcsWKFXZ6Xs6nqXjs1u+kkia/jII5lYKpJE+lRApCVVUxVomPtk+/o74D/Tb6jbQNCk7OP/98m69zZ6Kfv9YNU11z6Maq56vM6rweT0HP6/o8J5xwgv08ujbRzWfRPqPPHCwF9gjEgDSng7aCHwUc3imnnGLvIOrEoiBNrwrmdODSM1OiAEbV9kQnmjfeeMOO33TTTfZAo2qOZ5xxhmnWrJnN192ejRs32vEgHXh14NMBSgfeAQMGmMMOO8xNTQwFnLVq1bKBprZJdwdF1QEWLVpkx7OjQOzRRx/d60So7dXJXHdbzz77bPPggw/au4+eTl4KSEVVD3SC1sFfg0+LvreCXBAkkk6KusAQlWLqt1c1zDJlytg7ff5hdc3j94MgtSx53nnn2d9e3/cFF1xg83XC0YkGALKjY6xa19M5SHRhqmOkjre6+aVjpz+OXnzxxfbiX8cWHWtjPVOmY5KqyunYf/zxx9vAQBQY5PeZXr2ff36rSZMmdp3aHl2Et2rVygZXWr8urCWv59P8KOpjd7Vq1Wwg6JcTLafzu35PBZQ6Dyuo9hQQ6rfVd6XvTLVg9BtpG7Q+pfWq316NlsQKUsJW0PO6bjio+meFChXMAQccYKtsKk90/RBrHyYQA9KcDnK6QxndtKwO7F27djV16tQxF110ka3uoGodsejE4h1zzDFuzJgSJUrY9eouk0qOFPRF0x1CbYPoeTUdkBNJJxUd3D3dvfN37iSnu32iE8Oll15qD66626XvS3f7PJ1wdAds8ODBkbryOgj7ajY6Eeug6+kEefLJJ9txneiWLl1qx4uaglJ/0tU2+zvSohO6/x5V7UV3mKPptw8uo2qdAJATVf9WiYyesdHNO38cUdVyf37QcadevXqRUjQdo3QzTVatWhWzCl30cUxVyf2Fr85LsS58c6ILZl/VXue0YBV6H3Rp3aoC6eXlfJofyXDs1vn76aeftlX1dd5XkKrg1FMAo9JDnfNE2+sDM/0uwWsHUdpXedTza8nQyEdBz+u6vjn00ENdytjvJ3gTPBYCMSANxGo10Rf//+Uvf7Hz6GFd9Ssm6lNDDVoo6NDBRc9TqUqDTpL+JBb0008/ubGCUVUNvw2JoiAqeIKJlpdt110v3ZVVdQL/PIOqKdStW9dO1/fjq6P4k6JoG6LpGYhkE/wufDXVIF385EUinvEDkF58FTAFJ3369LEXo7ohplKi6GeJFSjFqvodTaUlsaq+xTqOebpplp9SlmADTrmR1/NpfiTLsVvnOjVepSBUfaCpWqU+p571EgWpvkRJ1fz8dmubo8+TevbsqKOOcqnkkOjzugI5/yxkPARiQJrSQUTF/grSRAcYVVlQdQHd0dJdSN290QOzqruv+tu6sxZLdie7nOiOokqSVDde76+Hl1XfPVF0RzW7Z7AOPvhgNxabqlvoJKY7dtHNCetOlu7eqsqFaPv9hUTwTmCsCwS1HuXp5Jxo+n3z+rsEv4tYFyi6eBJ9toL85gCg84kaKejSpYtN63kklRT5EhPRsdEfl/zzUsEbin5QYxPly5e38wXp+B+Pbqzl5zimZXJ7zM7P+TTVjt363XwppVpaDD4LrloxulGpWiSqnSL6fRXMBn/bWIG05tmwYYMd1zbHCnwKKq/n3qI4rxOIAWlKJwg9sxXdJK8Ofv5gouoJlSpVsuOig7kvlg9SdQsvWE1R9KCuD2R0wI720EMP2YZCfECoOuyzZs2y49H03t99951LZbVc5autxKODfvRzYMFt1HZlR1VhRIGqWpBSnXdfnUWv6mNMd/48X7VSVW18s/Z6MDcYDOpEpaoWonly2oYg/Wa++qOoZDOW/NxN1LN9/kSjbQ4+1K3g2Jf2qWpnrGqmAJAXuljVM1Z6pklUYqKuRvwxTiUzvnqaSs2Czxmr6lfDhg3t+UVV3IPHK0/V/4KBSfAcpqp0ChTySudFX9VPreAFOwLW+ejKK6+026SaE5qW1/Npqh271WS9aorIU089ZWuJ+O9EwYqCKeWrBFT881H6bf05Uufk6HOZ0qpyKqryFwyCspOX64S8lmAV1nk9OwRiQBqI1WqiDsZ//vOf7Z1E0YFDfY7oJOAPTjqgKfDQwUYBjW8lKpqqV6jeu6h3fQU+OgDrRKlnw0R3M4PPanm6K6iqg3rIVydjBTwKbIIn3GB9dQVpOrBqUH10bV9O9Bn9NulV2yiNGjWK3KWLR0Gmv0jQ96GLBrU4qe9Qr1dccUUkwNR34PtlU2mjHn4Wtc6ovl10caHBp0Ulatm1hiU6Afl65Ar89L36z6ITXE50UtRzDQqyg3cro+lk51vr0sWQWr/S/DqR606uD9rVeEmiG1QBkJl0bFODTf4CV40g+doHKglRsKVjoM5BOuaraXAd/3UcVZ7OZTpuxaqCruqAKpHS8VKBnD+H6b1UCyM/tC2+9UU9c6XzlbZHx3YdI9UUvebRM1L6bHk9nwalwrFbNx/VcIro/K0OknVNoHOknvPS96zuB0TzqnEr/Vb6bXXO1O+n2iRqdVABo34rfT9K61W/lc7BOZXkFfQ6Qdcc+s6yK0VN5Hk9twjEgAygk4Za8lGgpAOkDuj+rpn6u9DBRydD3e3xJT46WPkTgw6AWl4HHt3RVMMWOgAruFJa+aq+l91DqZqmFoe0frWwqBOJv6unA7dvYEMPdOvArMF3AJ0dbbtOhH6b9Kpt0ufTw9P+88Sj7VLrTTmdtHXi6dy5c+RkoDt+t99+eyS41Peo70GD1qc81ZtX1ZycqjBonWpRUnQy1zr9Z4l3cgoG1Pq8+v20XHaNkwQ/q+4gqr8T3QFUsKpWI0XViNQ0cXbP3QFAXugY4xu30LFR/X/5EhK1euirL+qmmhpJ0PFftS107lIQp7xY1DGxWrbV8VLdjqhpdi2jY3+sG4O5pcBDx27RsVHbo2O7quaJannoRl9+zqepduzW+tTqov8+4tH3rm047bTTXE5Wgxf33nuv7a5GwbeCV/1W+sz6rfS96XPldMNU8nOdoIYz/HN6qjKq70xd8cSTyPN6bhGIAWlMBzk15T5u3Djb9Ko/QKsUSCUtOtjo4Kn5dJJ86aWX7ElN9ABysCqBTpY6SaqpXB2URK9KK1/Tc6KTiE4UortLvlqCTlw6wUVvj+6yqTn67JQsWdL06NHDqFVDHcy1vNaju5G52SbR59DD1XqWTcGl7+NMr0pr29RnmkoYg3TnUQ+m67104tZ7a9DJRncp1cGmqmnkRMGWAlk17e+/W52odCHi+yGJpt9SD4jrxOe3Vyfr7J6Xk+Bn1XuIltd3pjvV6uONRjgAJJKOV6pd4Bt1UC0DHYcUnOiCVhe/Ov7oOKTjkT+O6tgaPHdFa926tZ1HAZnomKa0qg/GWyY3dAzs3bu3PY771gGDx3ZN88fJvJ5PU/HYrfUqKFEJZPPmzSPnKVH1fgW+urmqhkqCAYo+q34LPZKgefxyetW1g9anJt5z81vl5zpB1V7VwqPfP7SMZNeaZqLO67lVbP369ftWugWAJKdGNnRA1N0udW4ZPDEAAPJGF5tly5Z1qeypmpeqmBUFVcNT4xDyr3/9K8faDEAyo0QMAAAAAEJGIAYAAAAAISMQAwAAAICQ8YwYAABAhkuVZ8SAdEKJGAAAAACEjEAMAAAAAEJGIAYAAAAAISMQAwAAAICQEYgBAAAAQMgIxAAAAAAgZARiAAAAABAyAjEAAAAACBmBGAAAAACEjEAMAAAAAEJGIAYAAAAAISMQAwAAAICQEYgBAAAAQMgIxAAAAAAgZARiAAAAABAyAjEAAAAACBmBGAAAAACEjEAMAAAAAEJGIAYAAAAAISMQAwAAAICQEYgBAAAAQMgIxAAAAAAgZARiAAAAABAyAjEAAAAACBmBGAAAAACEjEAMAAAAAEJGIAYAAAAAISMQAwAAAICQEYgBAAAAQMgIxAAAAAAgZARiAAAAABAyAjEAAAAACBmBGAAAAACEjEAMAAAAAEJGIAYAAAAAISMQAwAAAICQEYgBAAAAQMgIxAAAAAAgZARiAAAAABAyAjEAAAAACBmBGAAAAACEjEAMAAAAAEJGIAYAAAAAISMQAwAAAICQEYgBAAAAQMgIxAAAAAAgZARiAAAAABCyYuvXr9/lxgEAyLX+L24xby/52aUAFNTBBxYzr3U/0qXCVbp0aVO2bFmXyt7GjRvNzp07XQpAfhGIAQDyRYHY9A9/cikABXXUIcUJxIAMQiAGAMgXH4j1uryyubReeZcLIK+2/vKHuXzQUgIxIMMQiAEA8iUYiN11ZWWXCyCv5q3cSiAGZCAa6wAAAACAkBGIAQAAAEDICMQAAAAAIGQEYgAAAAAQMgIxAAAAAAgZgRgAAAAAhIxADAAAAABCRiAGAAAAACEjEAMAAACAkBGIAQAAAEDICMQAAAAAIGQEYgAAAAAQMgIxAEBGe//9983FF19sNm/e7HIK5ueffzYdOnQwkyZNcjmJt3z5ctO0aVP7mp1EfzYAQOIQiAEAgKSg4FVBrIJZAEh3BGIAAKSYmjVrmpkzZ9pXAEBqIhADAGC3CRMmmGLFitlBVfo8Vf+rW7duZNr999/vphhb5U9V/2It5ynPT4uuKhisYuinDR06NNv1SXTVxOA26tXne/E+W7R4n8dXt9S2+enRJVf6Xvxy/jvyy/lpPj84r99evVebNm3MmDFjTLdu3eyyOW1P9HoBIJUQiAEAMp5Kl7Zt22Z27dpl5syZYzp16mSDA13wK/gYOXKknbZs2TI73U/r3bu3adu2bWTagAEDzIoVK9xas4IwBQnffvutOfvss11ufPG2IzsKVrp27RrZxl69etm0D/Zyu87ozxNr3vHjx5thw4aZ7du32/TgwYPtq6oUrl+/3uZr0HjwGTk/rU+fPvY78Wm9zzXXXGOmTp1qv5+JEyea9u3b2+9cctqe4HoBINUQiAEAMl6dOnVM8+bN7Xi9evVM/fr1zYIFC0zJkiXN6NGjI0GUAqqvv/7ajq9du9asXr3anHbaaTbtqwsef/zxNv3yyy/bIEwBSYUKFWxeTuJtR3YUAEqtWrXsq0qQxOfndp3RnyfWvAqa9Dn1vShA8kHV7NmzbVr5fpryFNxJo0aNbL7ou9R3qrSma/lYcrM9wfUCQKohEAMAZLxKlSqZihUr2nFd2FeuXNmOS7AanUq8jjjiCJuvoEx5frloCoRUkvP666+7nJzF247gNqhK3i+//GLzZc2aNaZq1aqmVKlSLmdv8dapANGvU8Hb559/nu3nkerVq7sxY+crX768LZHSNjRs2DCyPo0rzwdiQSrR8tUoGzRoYIOtWHL6fgEg1RGIAQAQECylUdCgKnE+qBo+fLjNFwUIylPAEIuqCGp+PZ8VqypgLBs3boysL7gdqnqn99Kg0qSDDjrI5ouCMAU9CohyElxn69atI+tUsFijRo1sP4+sWrXKjWUFSlu2bLEBoLZB35Nfn1/noYce6ubeQ9UQVbKmeRYtWmSDtlhy+n4BINURiAEAMp6qFPqSq4ULF5p58+ZFqsSpKqIPBhRE+KqJVapUMdWqVYtUlfMNS8ydO9emRdX4rr/+evvMk4IgBRcKtny1QS3r1yeLFy+OrC96O+LxVRL9Ov3n8PnZfbag6M8Ta15VRdTn1Gd55plnbDVDlbCpiqDSyheV4KnkzqejKRjUNAWozz//vMvdW262BwBSGYEYCpWvppLKA4D0pxYIN23aZP/zKqFRwxcKojSo9MZXuzvllFNsVT8FZqrmN3DgQBuAaJqCLD0bpep2QQrOVGI1ffr0fdan9zzhhBPcnFnboWerorcjO3r+TA1oqCELLffII4/YtH8uLd5nixb9eWLNq89//vnnR6pB9uzZ076qdE0BmfK1rAI2rUvrjKbn1RRQaV4FqB07dowEZgqyNO2qq66yJXw5bQ8ApLJiuw9+u9w4kHAHH3ywKVeunEulHt2p/uOPP1wKQFD/F7eY6R/+ZHpdXtncdeWeZ6qQP76Fxdw07qGSpC5dutiqj2EEJgqS1KS8Sr4UdCGx5q3cai4ftNQcdUhx81r3I11uuEqXLm3Kli3rUtlTqe7OnTtdCkB+USIGAEAK0vNXNGQBAKmLQAyIQXemVRVGVXDUkhgAJAuVmOn5rxNPPDHXzeIDAJIPVRNRqFK1aqLviPSCCy6gaiIQB1UTgcSgaiKQmSgRQ6EL9hmjh9bV4pZKnHyLWho07oMfzd+qVSszf/58+6ppWtY/AO4F+9UJLqsH0zX49/JiTYu1bVpXmzZt7PDoo4+6pQEAAIDEKTZt2jRKxFBoDjvsMPPggw/alsT0gLeCJ7WOpT5xNK4WsaR37972gXM9DK5ga9asWbZlrRYtWti+eILLqpUttT6mlsU0vnbtWjufWtPS8xJ+XM0qBynoCk5T0KX1aluUjl6/+stRC1656ZsnKLrFNCBdUSIGJAYlYkBmUtvcBGIoNDfccIPZsWOHGTFihH2WQcGQWvp6+OGHzahRo2yApuDpww8/tM9iqRnjxx57zJx33nk2P9gqmAI0NWOswO7ee+/dq/UuBVHVq1e3gVO8lsT8ewfXp+VUAua3rV+/fnZb1eeOArGxY8faQC+3pk2bRiCGjEEgBiQGgRiQmYrtvmgkEEOhOeOMM2wnoz7YUSlU586dbcDjO+mUqlWrmg8++MA0adLEPPvss+bmm2+2+T4w0rLRgdiYMWPsPN6AAQNsKVpwmaBgoOXXp35pgurUqWOmTJlit02BmDoQDXa2mh114koghkxCIAYkBoEYkJlorAOFasOGDWbIkCH7lIipVEpmzJhhXy+55BIb/Pz000/ms88+M/3797clUdkFYipNi1X9MC+BmNanqojRnY4qcFQgdtttt+WqsY5rr72WQAwZh0AMSAwCMSAz0VgHCpUCni1bttiqfjJ16lRTrVo1U6VKFVv1UMGRSsI0rmqFKoFSqVR0YBSkaaqWqCBKDX2olE0NbfgGO3JLzT+vWbPGvqdo+egGPgAAAIDCQCCGQqUOR4cNG2YeeeSRSKuHaqBDwZSCtMqVK0f6wlEw9sMPP9iALCd6NkzLlipVyi6nkjH/vFhu6T21bZ06dbLbpm1UWvkAAABAYaJqIgpVqvYj5un5MKomArFRNRFIDKomApmJEjEAAAAACBmBGAqd77Q5FQcAAACgMBCIoVCpFUQ11pGqQ26qJQIAAAB5RSAGAAAAACGjsQ4gAWisA5nIN9bR7NTyLgdAfr320RYa6wAyDIEYkAAEYshEPhADkBgEYkBmIRADEoBADJlo8vxtbix9qJP3V155xXTu3NnlIBm9NuM1c+BBB5rzzjvP5aSPVmeWdmPhIhADwkcgBiQAgRiQHubPn2969+5t3nrrLZeDZNSvXz9TpkwZ06NHD5eDgiIQA8JHYx0AADhHH320ueGGG1wKyapx48bmrLPOcikASE0EYgAAOJUrVzZt27Z1KSQrBWLUPgCQ6gjEAAAAACBkBGIAADhbt241ixcvdikkqy+++MJ8+eWXLgUAqYlADAAAZ8mSJTQAkQKefvppM3XqVJcCgNREIAYAAAAAISMQAwDAKVeunKlbt65LIVlVq1bNHHPMMS4FAKmJQAwAAKdWrVpm8ODBLoVkpS4Gmjdv7lIAkJoIxAAAAAAgZARiAAAAABAyAjEAAJz58+ebCy64wKWQrPr162eGDBniUgCQmgjEAAAAACBkBGIAAAAAEDICMQAAnBNPPJEqbyngxhtvpNVEACmPQAwAAKdMmTKmTp06LoVkdeyxx9KPGICURyAGAAAAACEjEAMAwFm/fr155plnXArJ6t133zVz5851KQBITQRiAAA469atM+PHj3cpJCsFYv/5z39cCgBSE4EYAAAAAISMQAwAAOfoo482N9xwg0shWTVu3NicddZZLgUAqYlADAAAp3LlyqZt27YuhWSlQKxBgwYuBQCpiUAMAAAAAEJWbP369bvcOIB8uvbaa20LXtOmTeMuLVJWxYoVTbFixVwqM+3cudP8+uuv5qCDDrLpb775xr4iuXzxxRdmv/3226svsQMPPNCULVvWpRC0Y8cO8+OPP7pUbKVLl87197dx40b7XwFQMARiQAIQiCEdKBA74IADXAq60NQFJ5JPv379bOfbPXr0cDlZgViFChVcCkHbtm0jEAOSEFUTAQAFtnz5ctOqVSuzefNml7OvnObR9Lvuusv8/PPPLid/tHyHDh3MpEmTXE5smn7//fe7FJA97Ss57VOe5n3//fddKv+0josvvjjb/5Wm6X+l/w+A1EIgBgBICgsWLDB16tQxJUuWdDlA6lFgpI7Ba9Wq5XIAIDYCMQCA+eWXX0znzp0jd/Gj78T70gBf2qRnyTRoXBedXbt2Nc8995xp3bq1XUaDltc80Xf0J0yYYPPr1q271138VatWmapVq+5V8uDfT9vjS9SGDh0ac3ktp/ybbrrJ/PDDDy4367Mo3w9Ka2jTpo2577777HLR8+k9C1oyh8KjqonBaolB2nf87+j3I/3GLVu2jORF78f67b3g8n4fU572Fe0zwXX6+XyefPvtt7aKnzoHD5YA6z38fqVltR/7/4jfB0Xvp/dV/qxZs1zunv+Cf0+Nf/fdd6Z37972v9eiRQu7bHafDUByIRADANjGKc4++2yzZs0am9argiJdVOrCbuvWrea0004zgwcPtk2879q1y07TfBqGDRtmL3R1QVqqVCl7cdinTx87n5qDf+yxx+x6ly5dag4//HCbf80119iLUa1fF6u5KUXQ8nreRcv36tUrsrzeVxec2iZdpGs+0YXpgAEDzLJly+wyEydONM8884ypV6+eHdc0bWdwvu3bt9tlhwwZYl+ROrQPzJ492/6G2hdeeeUV+9vKIYccYvN1syC4H8+ZM8d06tTJzqfltX9oWb+PTp061S6j/UP7jMa1v2l/1fq0zzzyyCORgMeX7PoGX+IZP368/d/ovbSsBv0PdFND+7bePyjWf0/7+cCBA+1/b8qUKaZmzZoxP9vKlSvdWgAkEwIxAIB17LHH2otYBTa6wGzWrJm9qFy7dq2dXqVKFRu0aBAFXArWoml+lUj5oEoXrn6ZI444wgZ0ct5559lX0cWsLh5zamxByzdv3tyOqzRB76P3U2maAj4tr4tRXUCLxmfOnGlfJdb2ij5ntWrV7GdU1UitSxfaKilEclKg7Ifvv//e5qkEqVGjRvY31L4wefLkyG+v/Uv5CnYU9Pj9T0F5/fr1bXCjmxGvv/56ZD+sXr26fQ3S/0P/E/8+fn9TYKRpixcvjuzj2dEyWlbvpf1N265tKF++vN23Rfu60pKb/168z6b8kSNHRr4v7dveW2+9ZfMeeughM2PGDJebdTNGNzU0KNAMGjVqVGRd/vgg+gw+/80333S5xmzYsCGSP2LECJeb5YknnohM03t67733XiRfv4n39ddfR/KHDx/ucrM8+eSTkWmff/65yzU2IPX5r776qsvNahXV5+umTtC4ceMi01asWOFyjW2Yy+e//PLLLtfY0kmfrwHIDQIxAIDlL1i//PJL2yqaArNNmzbZi0O1UKeLTpUa+GpTuhgcM2aMXSZI82/ZssWl9nbooYfa1hmj6QIs1kVvtFjLK1gKXlhGC1Yha9iwocvdlz6LPpOfz19YIzXktB9E71/6jYP7sf+9g9X6VBUxHk3z86naom4G6AaGWieMtY9Hi7W/Z/ffyc1/z4v+bGruH0DyIRADAFi+NEnVndSUtfpoUjXAF1980d5h10Wq7hr7alO66Gzfvr1beg9dhPq7+LmRXSmC3iN4l1x3nXWxKnpVWlXAVNoRi6/ypXl9Va14VPVM8/jhtddey9PnQLj0jJgfVO0wu/0gmn5XX13VDyq5nT59up2u/U55qooYj/al4PIqrcquZDe4H4sCN8+Px/vvKMjMzX9PYn02PT+mKor++wp+TxdccIHN+9vf/mYuueQSl5tVeuxLxPS+QbfffntkXSpF9nSc8PkXXnihyzXmqKOOiuTrWdSgW2+9NTItWMp37rnnRvJ9CaGoVNznd+nSxeVmufnmmyPTatSo4XKzAlOff+mll7pcYw477LBIfrdu3Vxulnbt2kWmHX/88S7X2C5qfP7ll1/ucrNuEvl8DUBuEIgBACL0/Jaqc+lVF5MKyHSHP9azWwsXLox5V14Xk7qrr4tB0fM0KmWIV81PJXASvKDzVSS1DlUt9FQtSdUIJVidUBeAerZHVbBUcvD888/beYK0Ps0Ti4JAXVj754lUiqaLTaomphaVMvl9R/uCLuAViAdpvz7xxBPts1/iS5qi59PysfYXlQyrWqKmBd9H+7mq5vlqgaKbGtqHNZ+2K0jvp2U1aFzLaV8uV65cpCqetjFWCVm8/168zzZv3jybRnh0A+vxxx93KSA2AjEAQIQCEl34+dIpBWT+Dr8uQPUsi6+SpYtOlSLpTr8PvlSqIGqEQHfgNZ8uWNWgQLzGC3Qh6qs+SseOHe06Va1KFzPBO/8nnHCCvaANrlfL6dkeDdoONXZwww032Pn1jIzusitfd7L13JueK1OJgvJ9q4kqCdS4Ak6tWxfGDzzwQI4NLiC5aP/T/qp9R7+59lftF9F69uxpqzHqt9ZvrhIfzaeAyu97WpeCcc2nQEpBnm81Mfp9tOzVV19tG7VRWrRPab0qjdG+p30x6JRTTjHnn3/+XtupfVklM3omS9umGyHaT7UfxvvvaRsUvPlWE2N9Nj0nhnDpNwg+pwbEUmz3jrJ3szwA8uzaa6+1D/BOmzbNnnCBVKQLwgMOOMClko8uMlVNSg/7x6r6lWg7d+60z8ohNRx44IGh7BeJoOBfgZ2/cVHYVMVYJdvZUdCnZvdzQ/8L/T8Qn1qK1bN5gwYNcjnAvigRAwAAABLoL3/5S9zn+ACPEjEgASgRQzpQidj+++/vUjnTHXE1luGrYqUjSsRSh0rEaFwlNlXFpUQMSD4EYkACEIghE+m5GT2MrmeyAKQ2AjEgfFRNBADkixoWIAgDgH3997//tZ1lA9mhRAxIAErEAACprChLxMaPHx/pHzCaWpts0qSJS+2h6pajRo1yqb01b97c9oMYTf0VxgqO1CqlWnmNRef1WB1in3zyyeaiiy5yqb0NGTLEBmJqoVX9tHlXXXVVzI681c3BjBkzXGqP4sWLmzvvvNOl9vbSSy+ZlStXutQeaikz2FdakLYrFs0fq4uSzz77zLZcG0u8vtLU/+KSJUtcag99bn3+WIYPH25+++03l9pD36++52j6PfS7xKLfMVZrt2+//bZZtGiRS+2h/UT7SyyjR482P/30k0tlUcuqtWvXdqmCIxADEoBADJmIqolA+ijKQEx9qPk+/KLdcsstpn///i61hwK3OnXquNTe4p2L1eXFPffc41J7qPn/WMGDtGrVyvz73/92qT2UP3jwYJfaQxfuwQ6ggxRwBgMzT/0eRndO7e2+Tndje9P3oqAn2hVXXBE3QA125B2kFh6vvPJKl9pD/dmpk+xY4m2XzgexgiR11TBhwgSX2ttxxx1nA+to6sbhuuuuc6k91IVJy5YtXWpvn376qe3gPZo6LI/1/tpP4gV16oPvm2++caks6lg9XuCWH8V3R7T93DiAfFLnmevWrYt7Fw5IR3r4/8Ybb4x7xxZA6lDXFWrwJDfUHP6uXYm7j68ARf0JqlRGF+U6j/rhjDPOMKeeeqqbc4/ff//ddmwdnNcPKrVQH4jR1CH8pk2b9plfHcOrlcNYVFpVokSJfZb585//bE4//XQ31x4KUFUapqrbCmzV96Ff5sILLzRHHXWUm3MPBZUbNmzYa/0atF260RuLAlf1FRe9jL6reDeEdcM4en4NCpKCHep7aoxp7dq1MZeJF4yoFO2PP/7YZ371m6eO0GP54IMPzJFHHrnPMo0bN45ZgqiSxlWrVu0zvwb15xerG5bVq1ebHTt27DO/SrdilbjKggULzGGHHWbn0/lOy1MiBiQhSsSQiXThpIsRdSoLILUlQ4nYxIkT414UA0VJpbKffPKJrfqYyH2UxjoAAPmiu47ceABQUIksXQMKQ9++fe3N9kTfKCAQAwDkS5kyZczkyZNdCgDyR8/i6KZOOvUDp6qGqj4HZIdADAAAAEVGDSCotEEBWbr417/+ZcaMGeNSQGwEYgAAAAAQMgIxAEC+qLGOqlWruhQAAMgLAjEAAAAggTp27GgGDRrkUkBsBGIAAAAAEEeLFi1sh9hTpkxxOYlBIAYAyJcKFSrQhxgAAPlEIAYAAIAi061bN3PttdeaRYsWuZzU9+KLL5rHH3/cpZAuihUr5sYSg0AMAAAARUYB2Ny5c82WLVtcTupbv369+fzzz10K6SLRnY8TiAEA8mXr1q2mVatWLgUAAPKCQAwAkC+//vqrvYsNANjbX/7yF9O+fXuXAmIjEAMAAECRSfRzN8ngqKOOMtWrV3cppLq//vWvpnv37uakk05yOYlBIAYAyJdSpUrZh+wBoCAS/dwNkGhqTKZHjx6mdu3aLicxCMQAAPlSsmRJ07VrV5cCgPxp166dLW2oVq2ay0l9//3vf81bb73lUkBsBGIAAAAoMjfccIMtbahatarLSX0KxN58802XAmIjEAMA5MvPP/9shg0b5lIAACAvCMQAAPmyfft2M3ToUJcCAHiVK1c2NWrUcCkgNgIxAAAAIIGuvPJKc9ttt7kUUt2SJUtsdy2bNm1yOYlBIAYAyJcDDjjANGjQwKUAAEhP/fv3ty0nvvPOOy4nMYqtX7+eNkOBAtKfU3dKpk2bxoUp0tbOnTtNhw4dzHfffedy9qWqOIMGDXIpAKmidOnSpmzZsi6VvY0bN9rjQaIsWrTIPnN6wgknmEMOOcTlphZ9hgceeMClYrv55ptNs2bNXAqppEWLFmbOnDm2On7z5s1dbsFRIgYAyJX99tvPnHLKKeabb76xLZwFB/Untnz5cnPGGWe4uQEgd3T80A3Njz76yOWkHh0bv/32W9vhb/Tx8fzzz7dV2xo1auTmRqpKdJ93BGIAgFy79dZbzebNm20fYir99YOCszJlypirrrrKzQkAmUM3qhR0vfHGG+bMM8/c6/j473//29YmUKkjEEQgBgDItQMPPNDccccdZuDAgS4nq8riww8/bHr16mUvRgAgE11++eWmRIkSZvr06S4nq8qiSvpULRGIxhkTAJAn7dq1M0uXLjXz5s2z6eeff9423KFWwgAgk91zzz3m0UcfNX/88YdN33///fbm1cEHH2zTQBCBGAAgT1Qq1r17d/tgui42VBrWs2dPSsMAZDw1xqGgS413vf/++/bZ2VtuucVNRaqaMmWKWb9+vW20I5E4awIA8qxNmzZmw4YN9k6vWlq77LLL3BQAyGy+VOzBBx80Xbp0sTevgFiKpPn6vn372iYgAdWnvvPOO10qddF8fdHQ/rN9+3aXQti+//5724z10UcfXeQPoffr148WyYACoPn6xLr00kttCcr8+fMJxBBXkQViY8eOdSlkMj3cTyCG/FIgtnDhQpdCJnvuuecIxIACKMpArDCsWLHCbNmyxaXCp3OTag1QW6DoqPXKZEcghiJFIIaCIBCDRyAGFEw6BmKtW7c2FSpUcDnhU59TxYoVcymE6fDDDzcTJkxwqeRFIIYiRSCGgiAQg0cgBhRMugZiqh6IzKLzgeIMArE4ogOx5s2b217Hkf7U6sysWbNcikAMBRMdiA0ZMqTIn1VCOLp167bX84EEYkDBEIghXRRGIKbruy+++MJcfPHFpnbt2i634JImENMFOtKfAm4CMSRKrEBMzaoj/al5aAIxIHEIxJAuCiMQU7P1amhQrWEmsgl7mq8HkFReffVVs2nTJpcCAKS78ePH2xtpa9ascTlAckr0M38EYgCSylFHHWVbOvrb3/5mvvrqK5cLAEhX48aNsyUNq1evdjlAclIDLIlEIAYgqZx66qnmrLPOslUKFJDdddddBGQAACDtEIgBSDr33HOPff3jjz/MpEmTbEDWo0cP6voDAIC0QSAGIOmcfPLJe7WkqoBMD9/Wr1/fNu7CcwQAkD7oawvJ7sQTT7SNsal/skSi1USEKhNaTURiKNjq2bOnS+2tePHi5i9/+YtZtmyZ+fTTT10urSZmElpNBBKrKFtNbNKkiW3lcOLEiXY8EWg1MXMVRquJhYVADKFK90AMRYtALHMQiAGJVZSBmPoF/PLLL83//d//mbp167rcgiEQy1ypFIhRNRFASglWYSlXrpwbAwCkqqFDh9oaJYkKwoBUQYkYQpWuJWJIPPUndtttt7lUVgDmm41VyYdaU9SxhA6dMxMlYkBi0aEz0gUlYgBQQI888ogby6Ig7IwzzjAvvPCCPcjWq1fPTQEAAEg9BGJAAeiuvO4ipuqgRi+SjUo5XnnlFbNy5UqXk9W3mErNFYQpGAOQmmIdh1JpoHW/ohMsAQfSRcYEYps3bzYXX3yxPYhGD+qnqKC0Dq3r/fffdzmJEW+7ladpUljvjdxRVY5UHZLR008/basdyimnnGL3bwVmDRs2tHnJorCPKffff799XmL58uUup3Dk5X00j+bVMkB+7LfffjGPRakyoOhMnjzZ9OnTx3z77bcup+joGBjr2J+IY6PWoeHnn382HTp0SMj5RHT8btq0aYHOKXnZJj9vor6XotaiRQtTuXLlhD9KlXElYu3bt7d3VVTNScOAAQNMmzZtkj6ICW63muxW/ezevXvbHT0dvPjii3YINkWOwqP9XQdHPbP3+eefu9zkUKFCBbN161ZzwAEH2D47kv3h7VQ9pqSjVatWRY4lQCL5Y+YFF1yQdMfMTHHdddeZ559/3taK6Nevn/nuu+/clKKhY70/7vtrM21fMh37FTApGCqKa0U9v61uaBQ4K4BGbBlfNfG8886zr6nUQWzNmjXNNddcY+bNm2fWrl3rclObgsqOHTu6FAqb9nf11/L222+bGjVquNzkoFKwLl26mF9//dWMGTPGnH766Wbw4ME2OEsFqXhMSSc6jtBgCxLNHzPfeuutpDtmpgM1X69uYBYtWuRy9lWyZElz++23mx07dpgnnnjCnhseeugh88MPP7g5ipa/Ngs2SFYQ+ryjR4+2DY4kgrZv5syZ9jUsVatWNaVKlXKp9KAbMomU8YGY/jB16tQxp512mk1HVzcKVgGUYHF0vOo8fh1+Wd2R0Pz+Lom/s+aLdrVOrUvVsfy6C1IU7dfvB18k7LdLd0eC75VMd29SUbD43X+fGvxdKD/d/6baZ1q1amXmz59vX6OX9YL7WnBZVS3QEL1vxpqmPO1bWkdwf1SJjYZHH33ULZ081Hv9rbfeag488ECbVmmTmjY+88wzzfDhw81PP/1k85NVYRxT/O/o9yl/zPDz6jfV8tp//Ptp39KQ3Xpjid5e/55BCor9fpuXdQPi92ftP/7/UNBjpl8mOl+vOiYG/z+e1ht9zNT8fh1+/uAxU8ciJJ4CMPXFuWXLFpcT24033hipIvrLL7+YESNG2BIytZibjDfr/LE5uD+JjuG6DvP7bPR5QaL/BxI8X2jci3Ue0b6sfVY3NBXoLl682O7r/ngdfaz3/xn/vwheJwbfK0j52ka/nuB763ECvbdqtvj3jLf9qUSln4mUcYGYdgpF535HuO+++2wT6rpDoJ1eJTOK4HXx56sAPvbYY3ZZ7TQqdla+ptevX9907dp1rz+P8rUOLTds2DBbzSo39AfRxZt+YN1105/H/ymiaYfWduj9q1Sp4nKzaFqnTp3sOvy69BmD61JJ2s0332yLi/Vne+aZZ/Y6OSFvVFoj+u3nzJljv//9998/kqdBNm3aZF/1vSvYOOSQQ8zSpUttk9v6rVTNwf8WOvCqyV0tq/1NLQj63/Drr7+2v+nrr7++z/4VnCbaP0eOHGnXf/bZZ9t98+qrr7b7hd4vWUsO9N1oHw3SXc9BgwbZ/V53CXUSTgaFfUzR/qK8SpUqmYEDB9q7pLmhfUvVd+KtNxZN191Xv70a5Kqrrtpr2Y8//thui7ZN26WLU44hyA1VJ9O+qP9I8LikfU6C+11ejpk6Duv5DeX747C/+NNxUc916LgR/f8JHjP1Plqn/z+K1qv/hD9m6oIWRad06dLmlltucaks27ZtszcVdZxTYFZUxyJ/beZrReicrf1T+5X2S+2f/npBdF5v27btXv+D7LY9eF2gQePK0/v4fK1LpXJTp06169R+q+rzOkYfdNBBbk1ZQZ7ez79/rP9MmTJl7DT9H7KrcqlrSl3v+vfWe6lVY61T15iqeaPzYXD79Z1ofcEgM1NlXS1mEL9D+oOxdgIFPXq2QHVYdaDWBYcuPFSEK9qxlKedxgc/vsg42kUXXWRftQPmpfg3eAddr0rrznqtWrVsni72NHjRn8PTe+rOkrZVF4Wx+M8gOvmpyoX+GLm9wEskNcLw2WefRUo5/v73v6dUJ70XXnihPbDoYKbvTwcffb9Lliyx03UAq1ixojnnnHPscwXaj/S7+gP1EUccEfndlecvKmbPnm0vNrRO/abaB/U7aV1aRq+xBKfpvcXvQ+qvz1+Ye0rrgJuMVP1ErTr+8ccfLieLLuQUwCiYSYYqD4V5TNENGt1V1PFAF5K5vbEjwfVqX9LxQ/uETs7xaLq2Uccv/3m0b2sb/L4sWoffFo3rJK1q0nk55iXaP//5z8j+8Ntvv5nOnTvbcSSXxo0bm/Lly9s76KLjkqoi68JM8nPM1DFB/yX/HIo/Dvt16mZBbo6ZCxYsMNWqVYv8b7Tv+2Oyp5tXOjalI91ALFGihEtlL9HBzldffWVfdVzX8SQ7qraubf39999dTpbvv//eVlXUcVT7lEpiCpMCeA1BCnz8MVb7rfYhf6z052Dt06Jzh++Gxf8P4j1uEn1dIMHzhX9PzadrEgV92dH7rF69OnJjwf9n9B/Q/0v/C22T6P+h/1A8Op/5Y3/16tXt+0eL3n7//1Kebg77z5SRdn9hu8IebrnlFpXrRYbdP/buQLpw7T4g79odme/avePv2n0h6nL3zt/957Cv2qbdf6Zdu08Iu3ZfAO0aMGDAXuOxaP7gZwrO56ftvrixab369xDNq3XrPSS4TevWrYu53UHB9fvt9OsLTov+DjRoXHmaFobdJ067Peky3Hrrrfb787+t6PfU9x4cNP3RRx/d9dFHH+3q1auX/W00tGzZMvLdax79HsH9MDj4/TC4TFCs9UWvI7hfaH27D5r7zJPKw5AhQ+xnD0P0/8kL5hfkmKL84GfT8p6m+d9SNE3zxPqfi98XguvwtC5/DAiuxwsuG2ubYy0Tht1Bl31fhtQa/DHTH6f0quOWPy75QftTbo+Z/jwZ/V5+PdH/US96fX5fDg7B/4b2e/a71BlOPfXUXUceeaT9bRNN+0L0cTC4X/vrq+ht8sft6OWD/wM/za9D69Z0rT/WcVbLaL1+/RdddFFk3VrW7/+aT9P0qvXE2l7NH5xPgu8dnE+iP0fw/YLvEWv7g/Mm2uTJk3edf/75MWOQ/A7Dhg3b1b17911vvPFGzOn5HTKuRCw7X375pS1i3b1T2aoIvohW/B2B3V+ajezjRe+7dyx7J1x3dHQ3IT93iHfvsLb6ku5wBIuSc0N3M3QXfffObt9b6WR27rnn2rvtqlag71VVDnQnJlXoLtLuP6VL7bkbpbtCuqs0Y8YMm6/xww8/3HzwwQc2rTuuOTW0ot/Q3+Xygvtkbuw+yMUsOfX7haoiFHXLU/Govr+qVUaXiHm6s75hwwazYsUKl5N8EnFM0f6l44nuzKsUIS+lYp5vOGT3RYmtz6+0Su6i1+Wrh8USb5qOd7tP/nFLHMKiFtVUmj5q1Ch7t/zuu+92U5BMVEL/6quvulTW+c4fgwpyzFQp2+4Lx33OuSopywv9V7Nr4U3PzajENR2ppVr/bG5OVB1w9/WuSxWcSuy1L+wORnJsDGX3hbstAY8uEfN0TaHqrzomJaqhi5zofXQsVHU/f85VqZSuCeNtQ/DYH/wfxKLSfl+DKfq6YOrUqbZUyjd0kptnr/Td6PfT++bnnJJX2W1/qlBjMoUh4wMxHbhVFUd/Fh/0+D+Hdm4FNdrBtaNq5wlWwdHOroN8sI6rdjRdLClff0YN/gLG74Aqro6m99H76QTggyldhOaX3ksnPF28JTM9ZKtWzlQdQd+5gtfatWu7qclPHTqryX19zwrK1FyrLrxV3K8DnS689WzT9ddfby8stD8EqxbEommax69TJx0dyFWMr3Xkln5/7QfaJu132k+1zuD+qvXGC3SK2r333htz23SS7dmzp20x6/LLL3e5ySORxxQFOLoA1f6kPkz0P9ExQoG+1qOTqKarekc0Xdhon9E+pOlNmza169P6tY9qWVFa26Ht0T6j+fy+JxpXnqb5ZfyNJu3jWt5XgyxKV1xxhb3w8YEYrbAmJ10867+hZ7J0/NF/wlcH1LEuP8fMQw891D5D5s+hWof+L3k9h+r9JkyYYJf3/0f9d7UN3m233ZbQACSZ6Pmr3PaVppvFO3fudKmC07lUxxcdG+Pd9PEULMcKwnRO0A0YXyUx7Jt0OuZon54+fbp9VdVZ7UP+Blr0OVjHYX/sD/4PYvHXBcGqfMGAy59jtD4dn/U9Zkfvo/fT9abeP3jtUhiit1//dX0XOkdl99/OBBnfWIcu6vzdau2MeoDYz6PnfHR3xu/gOsBr59YFiZbVzh6rQQ6ltXNpPdq5dUGjkgk9N6IWZWKV+OgCSflar+bTiUoXR3mlHdy/ly6S1BS41q0LchQOBQWifUb7k07+2pe0H+jCUBcIGtfvoQuM3ART2h+1rNap5bQvKC8v9J7aP1Xqpf1KDwbH2l+TkZ5be/bZZ10qi4L2adOm2WeldMJNFmEcU7QezafpukjUiV3Bkd5Lz55pejQdB9Sflt5XJ1i/Xu2vCpz0ntq3dNHj92FN10WCjhdaToO88MILe22Tlvd3nCUvjYggsylo0r6o45H2eQXyfv/RPpbfY6b2Yf2vtE7t2/rf5fUcqv+Rnvnx/8fgtqFw3XDDDaZHjx45BmEK1saNG+dSWXSNpfPFv/71r0J/Liw72md17afrL3+DS2ntx9qfos/B/jia230teF2gZbS/a7/XTTEd45WvmwYKCP05Rv8dTdN5Qs/QeXofvZ+CIa0reO1SWBJxXZOOiu3+sUK/tdO3b18zduxYl8p6SDHRPVWnEt3V0AWWvoPC/BMkA3UgHCwR1MnyzjvvNCeddJJttlbVsFKtRCyVGheJpoAnGUvE7rnnHnuCEJ1kdbJRNdZoKhHTzQ5PTRhneh9SehBcJzdd0OiknK4Xkfrv6a6q99xzz9mTvO66qiSSTneTk0pcVPKSqtSoBCViiS8Ry63+/fubxx9/3I7rRrOuIXxDLtFUIqZjoYKSZONLs3QzDomn84HiDJVwJ7uM70cMyUF33N99911bRx2ZTc996e6mSnIVjL388ssxgzAgFh1HfPcNANKHujMYP368vVn79NNPm9deey1uEAakCgIxJIXjjjsuMiCzqVRUd7L00D4nWeSFnp3jOAKkJ50b1EiHnsH1XQUBYdGjBep03PdvmChUTUSo4lVNTFW5bWEqWemB52RtrCM3qJqYuWJVTVS1RCS3VD9mqg8rqiYWXdXEvEjmqokoXIVRNVENAKk1a7XyrfFEoUQMKAB17JnKQyoHYQBST6zjUCoN6RqEFTU1va7ShmCDEkAyUuMmiUQgBgAAgCKjZtPVT9NHH33kcoDklOibMQRiAAAAABAyAjEAAAAACBmBGAAAAACEjEAMAAAAAOJQ6+5qgTORLSYKgRgAAAAAhIxADAAAAEVm6NChZtq0aebUU091OUBmIBADAABAkalbt65p0KCBOeSQQ1wOkBkIxAAAAAAgZARiAAAAABCyYuvXr09sF9G50LdvXzN27FiXMqZ58+amYsWKLoV0tmzZMjNr1iyXMqZXr17mzjvvdCkgby6//HKzcOFClzKmY8eObgzpbty4cWb79u0uZcxzzz1nGjVq5FIA8qp06dKmbNmyLpW9jRs3mp07d7pUclqxYoVp3bq1bekOmUXnA8UZEyZMcDkFp2cYv/jiC3PxxReb2rVru9yCS4pADJmLQAwFER2IIXMRiAEFQyCGdFEYgZiarZ8zZ4559NFHE9qEPVUTAQAAUGTGjx9vhgwZYtasWeNyEmPDhg2mWLFiDBk2tGrVyu0Biaf1JxIlYihSlIihICgRg0eJGFAwRVki1qRJE1uCNXHiRDueCFu3bnVjyFRlypRxYwVXWCViRRaIfffddy6VeX799Vfz+uuvm/3339/WNd1vv8wtmKxRowaBGPLtjjvucGOZafPmzea9994zlSpVMmeddZbLzUx61phADMi/dAvEgERKq0As0z388MNm1apV5ptvvrF39Nu1a+emAEDutWzZ0va988QTT9gSoZNOOslNAYC8IRAD4iusQIxnxEL2448/mqeeesr07NnT9OnTxwwbNsz89ttvbioA5I6qZC5fvtx06NDBdOrUyQwePNhNAYDUkujnboBEO/HEE+2Nz8MPP9zlJAaBWMgef/xxc8EFF5g//elPtif5mjVrmsmTJ7upAJA7CrxUNfPAAw80N910k1mwYIH53//+56YCQOrYtYvKWUhueqxKTdgnusSWQCxEP/30k22kRA1UePfcc48ZOnSo+f33310OAGRPAdfSpUtN27ZtbVrBWNeuXe2xBABSjW5Mq7ShfPnyLgfIDDwjFqJ//OMftjO46IslXUw1bdrUtGnTxuUAQHyxjhk7duww9evXN1OmTDHHH3+8ywWA3Em3fsSAVEAgFhKVhp1++um2lcTKlSu73Cx6QHXRokXm/fffty0pAkA8n3zyiWnWrJnp0qWLKV68uMvN4ltQVBVoAMgLAjEgfARiIZk5c6Zt2Sw7qrJ45plnuhQA7Ouf//ynDbiyM2bMGFOhQgWXAoCcEYgB4SMQA4AUdumll5q7777bnHPOOS4HAPKOQAwIH411AAAAAEAc6jtMjxbpOexEIhArIk8//bRtBhMAAABA5iEQKyKrV68269atcykAyJ+///3vpk6dOi4FAKmnW7du5tprr7UNlwHJLNGdjxOIAUAKO/nkk025cuVcCgBSjwKwuXPnmi1btrgcIDkluvNxArEictNNN9m7PwAAAAAyD4FYEalatao5+uijXQoA8ueee+4xH3/8sUsBAIBUQSAGAClMHTx///33LgUAqSfRz90AifbXv/7VdO/e3Zx00kkuJzEIxIrIO++8Y+bNm+dSAAAAmSnRz90AiabHiXr06GFq167tchKDQKyIEIgBSITrrrvOHHvssS4FAKmnXbt2trShWrVqLgfIDMXWr1/PbYgicN9995lDDz3U3HnnnS4HAACgaJQuXdqULVvWpbK3ceNGs3PnTpcCkF+UiBUR3fWhsQ4AAAAgM1EiBgApTI11VKlShb7EABQIJWJA+CgRA4AUpubrFy9e7FIAACDRlixZYjsd37Rpk8tJDAKxIrJmzRqzbt06lwIAAACQjPr3729bTlRje4lEIFZEnnrqKTNt2jSXAoD8Ofnkk80hhxziUgCQehYtWmRLG+gTEcku0X3eEYgBQAr7+9//bk455RSXAoDU061bN1va8NFHH7kcIDklus87AjEAAAAACBmBWBEZMGAAfYgBAAAAGYpADABS2KWXXmr+/e9/uxQAAEgVBGIAAAAAEMeUKVPM+vXrTYsWLVxOYtChcxF5+umnTZkyZezDqQCQXyoRu/vuu80555zjcgAg74qyQ+fzzjvPLF++3EycONE0adLE5WaZMWOGbWk6mlqLHTt2rEvtrW/fvubTTz91qT2aNm1qbr31VpfaY9u2baZdu3Yutbc+ffqYOnXquNQes2bNMo899phL7XHQQQfZzxHLQw89ZD788EOX2uPcc881d9xxh0vtLd51Yq9evcyZZ57pUnuo9ckhQ4a41N7itdY9dOhQ8/7777vUHlq/3ieWli1bmt9//92l9tDn0OeJpoZYBg4c6FJ70/el7y3aqFGjzNtvv+1Se+j30O8Si35H/Z7R9Lvr94+2dOnSuOvS/lXYrRITiBWR++67zxx66KE8JwagQD755BNTpUoVU65cOZcDAHlXlIGYmq//+eefzQknnLDPha+CsFgXyocddphdLhYFLwpIot1www3mwQcfdKk9fvjhB3PiiSe61N4mT54c80aXSki6d+/uUnuUKlXKrFy50qX2dv3118cMLLS9w4YNc6m9Va5c2Y3tTUFCs2bNXGqPV155xbRv396l9qYSnVhuv/1289JLL7nUHpdccol54oknXGpv8bZLnyNW8KjAtW3bti61txUrVpiDDz7Ypfbo2bOn/f6jKdB79tlnXWpvtWvXjtkNgoJgff/R5s+fb66++mqX2puCx8MPP9ylCgeBWBEhEAMAAMmiKAOx7Oi9Vq9e7VJ7lChRwpx22mkutTeVhv34448utUelSpVMtWrVXGpvsQI3UYAW60bXpk2bzOeff+5Se+y3334xS6pk2bJlZsuWLS61h4LKP/3pTy61t3jbVbNmTXsdGW3z5s02sImlQYMGbmxvml/LRdP69T6xzJs3L2ZT7voc+jzRFByp9CmWeNul71ffczQF6wraY/nvf/8bs6SuevXq5ogjjnCpPbZu3Wr+97//udTe4m1XIhGIFZE1a9aY/fff3xx99NEuBwAAoGgkayAGpDMCMSAbxYsXd2NIdn/88YcbyyyTJk0yDRs2NMcee6zLAYC8IxADwkcgBmRDxdgEY8lP1RBiVV/IBDTWASARCMSA8NF8fRF55513bP1aZC7Vx27VqpVtKSoneoj5rrvuytW8OVHLSBdffHHM+uBeXrZN82jbtI1BKqnp0KHDPvlB2pac5tH6tS3ZbS8AAECqIRArIgRiyIu1a9faV7WOl2wWLFhgm5ItWbKky0GYrrvuOqolAgCQggjEgFxQ6U6xYsXsoHGV4KgkR/1oKE8lOz7PzxfskyO4fN26dc3ixYtN7969zXPPPWc7B1SpT3bLf/vtt7bfOQVkwdKhYInS/fffb/sCUWmXllfa0/r1vspXE7Je9Htq/Lvvvttn24LLR5emrVq1ylStWtWOa3s0j/+MXnafzYs1j96na9eudltat25t09ltSybS90IgBgBA6iEQKyJqPpUWE1ODAoLZs2eb7du324BIfXT4pmHVX4Wabz377LPN4MGDbb8aSs+ZM8d06tTJBg1a/plnnrHLato111xj++tQx4YK5NQXiZqHjbe8KHhSh5c5GT9+vO3DQ++l9w0GM+qUMbqp2eB7ahm15qnmZYPbVrFiRbv8yJEj7Xz6rArUFDhp3eqXpFatWnZbtc3adjW3G2w6OLvP5sWaR9ukz6NtUTAr8bYFAAAglRCIFZEbb7wxbm/pSC4Kgho1amSr3lWoUMF2Lnj88cfbaeqXQhSQKOjxwVK9evVM/fr1bSChYOH111+3y4pfJii75YPBTk4U5Cmo03up40Rtu9ZRvnx5W3okzZs3t2lRJ5m+o0x1QulLtoLU74n499fy6vxSgammKXjS++l9tM3adn1XvuNGlbDF+2xebuaR7LYlU6lDZ30HAAAgtRCIFTFdSCog06DSCG/48OGR/GDv4R9++GEkXyUGQaqi5Kd99tlnLteYxx57LJI/YcIEl2ts1TGff9ttt7ncLOp93E/zF7/y+OOPR/LV272nzhN9/s033+xysyjtpwU7zdPyPl/r9VRS4vOje0HXdvppwR719bl8vj6vp84Afb6+nyB9f36annPy9H37/AEDBkR6olcVvMaNG9tBvc2LD1w6duxoOxFUM+KqMqegZsyYMXa71JrdUUcdFaly16ZNG3vhfMUVV+zT03z08q+++qoNRtSSlUrRfHD14IMPuiWMDUKaNm1qf4NYQZ6Wj9WBpOi79tX8/HvGMnPmTFsypvkUBKnUTOvVPuvfM7j/xhL92WLNn5t5Ym2L9lF9L56+N/8bBqto6nvw+Rq2bdvmpmR1su7z33jjDZeb9X4+v2/fvi43qxNIn68h2JN///79I/kzZsxwuca8/fbbkXyV5Hkq0fP5GoIBqH5rn699wHvvvfci+R9//LHLBQAAqYLm64tYsMf0U045xRx88MF2fOXKlZGLMZU4+EYadCHpA6ODDjrInHrqqXZc5s+fH2lO9uSTT7ZN0UqwZ3IFBP55EgUDS5YsseMHHHCA+fOf/2zH5YMPPoj0y3TSSSfZ55NEwcjXX39tx4888shIIKJqaAoEJLq3ewU5v/32mx1XVT7fPK4usr/66is7rmbi/QV9sJdzNR1/xhln2HFRIPrrr7/acfWqrt7V5YsvvjAbNmyw44cffripUaOGHdeFtkoMJLq3+48++sj88ssvdlwX9L6USM9h+eBLpUsvvPCC3ba//OUvNtgSbcP06dNtYKQSrzfffNP8/e9/N+3atbMlT75XeX3GsWPH2gvlfv362ZIeVbFTAKTvSNXutIwCu86dO9t59Pl9gKAe/bVuUamcLr7HjRtnL/QVtGhd7777rvnyyy9tYHLWWWdFSrh8AKJgX+sdMWKELbnSeyutqoCaR+tVkKpgoFu3bvYz6fvw26P9UFUr9fxZsEEOza/ARIG2vieVaAXn82ltT8+ePe26onvoz808fnu1/dr3Y22Lvi/dfNBvL9qvfBAX3QN/8D8X7DVf+6+vTqnf2/fAr/1d+71o39U+7MVbl/5XvpRK1ZArVapkx/U/1P9R9J/Sf8uLty59Zh9I67+r/7B88803kRsu2k/KlStnxwEgP3TNQPP1QLgIxIBs6GJcDUXoGTFd/Kv0SUGLmmufOnVqJBATH/goqFDwoIYu9CyTAoLo5bWMStF8sKPgI9byjz76qK3W6IOd4HoV1Clwkh07dkSCWv8sld5H6/Lz+YBL76MA6Mknn9wrEFOegjs9nxUMxFT65Nel7db6FQwpGHz++eftq4IiVaGMfk/R51bQJ9HfjfjAKt48en8fiEmsbdGzcZnaoTMAJAKBGBA+qiYCOdCFv0olVV1OQYGCr2CJhacSHZWk+SpzahxDwYJKyBSMaXmt6/bbb4/Mp1IMBRwKPGItr2bhVUqj9xUFY8pXwKRtUMAjqo6p91Kp6vnnnx/ZTuUpSFJQ9Mgjj9h162SrkkyVqGoeVZVUvqr2qSqm31a/bSoRU8mdqnJqPq1HaXWirFIdXzKl0jYFSNo2La9t8yf1eN9NULx59FlUIqTvTmJti3/+DgAAIFVQIgZkQyViqh6ZClS6pSp1PmDJJAoKffVbAEDeUSIGhI8SMQAAAAAIGYEYkAZuueWWSNVHAAAAJD+qJgLZ8K0yJju1jBhs8CMTBZuPBwDkDVUTgfARiAFpQH2V6fkwNW0PAEBeEYgB4SMQA9LAO++8Yw499FDbyiIAAHlFIAaEj0AMAAAgwxGIAeGjsQ4AAAAACBmBGJAGBg0aZCZNmuRSAAAASHYEYkAaePXVV82bb77pUgAAAEh2BGIAAAAAEDICMSANXHrppebCCy90KQAAACQ7Wk0EAADIcLSaCISPEjEAAAAACBmBGJAG1KHz4sWLXQoAAADJjkAMSAN9+/Y1Q4cOdSkAAAAkO54RA9LAOeecY6pXr27GjRvncoDC9/mm39wYgESpcXgJNxYunhEDwkcgBqQBAjEUhf4vbjHTP/zJpQAU1FGHFDevdT/SpcJFIAaEj0AMAJAvPhArU7K4ywGQX1t//oNADMgwBGIAgHzxgVivyyubu66s7HIB5NW8lVvN5YOWEogBGYbGOgAAAAAgZARiQBrQM2Lt2rVzKQAAACQ7AjEAAAAACBmBGAAAAACEjEAMSAP9+/c33bp1cykAAAAkOwIxIA00adLE1KlTx6UAAACQ7AjEAAAAACBkBGJAGhg0aJCZNGmSSwEAACDZEYgBaeDVV181b775pksBAAAg2RGIAQAAAEDICMSANHDppZeaCy+80KUAAACQ7AjEgDRw9913m9atW7sUAAAAkh2BGAAAAACEjEAMSAPvvPOOWbx4sUsBiPb++++biy++2GzevNnlFMzPP/9sOnTokPKtld5///12AACEj0AMSAN9+/Y1Q4cOdSkAyDsFlQouFWQmo2TfPgDIKwIxAAAAAAgZgRgAIGNMmDDBFCtWzA6qruhp3OdrCFY5VHVGVWuMtZznl9drdHW/YEmOpmtdKsHObn2yfPly06pVK7tscD6t2y8bfB+/DRrq1q1rl5fstsfTsm3atDFjxowx3bp1i1vqFOu9Na/Wp8/kv6fo9We3nJ/m84Pz+s8Ra/vi/S7x1gsAyYZADEgD//73v824ceNcCkAsM2fONNu2bTO7du0yc+bMMZ06dbIX+bqgHzFihFm2bFlk2jPPPGPzdVHfu3dv07ZtWztN8wwYMMCsWLHCrTUriNHF/rfffmvOPvtslxtfvO2IZenSpaZRo0Z2Xq1bQdT69evN9u3b7aBx5UV/hpEjR9rAKBgMZUfrnjhxomnfvr1drmTJkm7KHsH31mfV51aeN378eDNs2DA7XQYPHmxf422z56f16dPHrtOn9TmuueYaM3Xq1H22T4K/S6zvMbheAEhGBGIAgIxQp04d07x5czter149U79+fbNgwQJToUIFM3nyZFOzZk07bc2aNfZV1q5da1avXm1OO+00m9Y8CqSOP/54m3755ZdtEKbAQuvJjXjbEcsRRxwReW8FVbNnz7bBhwIlDRpX3i+//GK2bNligxZR4DJ69OiYAVV++PdWUKh16rP69/bBnoImfT9+u3xQFW+b/XJ+nRLcbk3X8rFE/y6xvsfgegEgGRGIAQAyQqVKlUzFihXtuC7QK1eubMd1wa+qbL6Km4IrTyU/yvPLRfMlUK+//rrLyVm87QhWydP2KLgKUumOgsSGDRtG5tO48g466CAbDCr48dMKUiVP6/LrUfW/devW2fepWrWqm2Nf1atXd2PGfr7y5ctnu80+EAtSiZaqI2q+Bg0a2GArlpx+FwBIBQRiQBo455xzTLt27VwKQE6CpS0LFy60gYEu7hVU3XHHHTZfdKGvPE2LpVevXmb48OH22bN41Qujbdy4MbK+4HaoCp3eS4NKhRRcBZUqVcoGQqqG5+fToCBQJVQaNK48BYjPP/+8DczyQx3EB9d/9NFH2/fW9xTPqlWr3FhWoKQSuuy2+dBDD3Vz76ESPZWsaZ5FixbZoC2WnH4XAEgFBGIAgIygKoW+5ErB17x58yJV23xwpMBIz4d5VapUMdWqVYtUefMNRMydO9emRdXxrr/++sgzWSoZUgDknzFTNbwg9fnn1xe9HdlR6Zmq22n7tF5RqZdKz7TOpk2bRoJBBSonnHCCfc1pe3LDv7evUqh1aTuC1f+C76Fpqmao0r542+zT0RSYapo+i4LJWKJ/l7x8jwCQLAjEAAAZQYHKpk2bItXj1KCFgij/fFGtWrVsdbhmzZpFSlsUZAwcONAGEr4qnJ5x0nxBCs5UWjR9+nQ7LppX82n9QdoOBTTR25EbKqlScKOSJi2v4Efbp+fO7rvvPvsZ/HZedtlldr05bY+nIEbBzFVXXWUDqmjB99a6FGgpzzvllFPM+eefb6dLz5497Wu8bfYBXJCendM2aF4Fth07dowEZsHtU5XH4O+S1+8RAJJBsd0HuF1uHECKeuedd2w1H12MAWHp/+IWM/3Dn0yvyyubu67Mes4J2VMQktfGPZKdgiQ1Ka+Sr2Bghtybt3KruXzQUnPUIcXNa92PdLnhKl26tClbtqxLZU8lyDt37nQpAPlFiRiQBpo0aUIQBgAAkEIIxAAAAAAgZARiQBoYNGjQXh2kAkhOeq7Kt3KYLvSsl1p5pFoiAOQNgRiQBl599VXz5ptvuhQAAACSHY11IC384x//cGOZ6cknn7Sdp1599dUuJ/McccQRplWrVi6FMNBYB5AYNNYBZCYCMaQFtUKmqjHIXIMHDyYQCxmBGJAYBGJAZiIQQ1rwgVi7du1cTs70nIZOJupjp1KlSi4XRWnRokV20O/h+z7KyYYNG8wbb7xBIFYECMSAxCAQAzITgRjSgg/Eunbtmutqimry/d1337V9cDVu3Njloij179/f9OvXz/4e+l1yQ53jEogVDQIxIDEIxIDMRGMdAAAAABAyAjEAAAAACBmBGAAAAACEjEAMAAAAAEJGIAYAAAAAISMQAwAAAICQEYgBAAAAQMjoRwxpgX7E0gP9iKUW349Y+YP3dzkA8mvLT7/TjxiQYQjEkBYIxNIDgVhq8YEYgMQgEAMyC4EY0gKBWHogEEstKzb+5saQzGa8NsMsXPiR+b/evV0OktnxlUq4sXARiAHhIxBDWiAQSw8EYkDiPfvss2b27Nlm1KhRLgfYF4EYED4a6wAAII2de+65pmPHji4FAEgWBGIAAKSxypUrm5NPPtmlAADJgkAMAAAAAEJGIAYAQBpbtGiReeGFF1wKAJAsCMQAAEhjS5YssQ3aAACSC4EYAAAAAISMQAwAgDRWrVo1c+aZZ7oUACBZEIgBAJDGGjRoYNq1a+dSAIBkQSAGAAAAACEjEAMAII199913Zu3atS4FAEgWBGJAiN5//31z8cUXm82bN7ucgvn5559Nhw4dzKRJk1wOAOzt9ddfNw899JBLAQCSBYEYAGSoQw45hGH3UK5cOfeNJK8SJUrE3PbcDLr5c8cdd8SclpuhdOnSbisAAIlEIAYAGapUqVIMu4dUEWvbczOcdNJJ5oILLog5LTcDAKBwEIgBRWDChAmmWLFidlB1RU/jPl9DsMqhqjPqznas5Ty/vF7vv/9+O3hal6oxqjqjpmtdQ4cOzXZ9QH5p38ttlVnNG73/+f09u/3SV83Nad/Ny7akq+XLl5tWrVplWy1a36M/RgAACh+BGBCymTNnmm3btpldu3aZOXPmmE6dOtmLJF0gjRgxwixbtiwy7ZlnnrH5ujDq3bu3adu2rZ2meQYMGGBWrFjh1pp1EaULzm+//dacffbZLje+eNsBhEn79/r1602tWrVcDgAAmYFADAhZnTp1TPPmze14vXr1TP369c2CBQtMhQoVzOTJk03NmjXttDVr1thXUYtnq1evNqeddppNax4FUscff7xNv/zyy5G7/lpPbsTbDmQWBd9169a1paK+NET7UsuWLW2eL0lSni89DZYuadznaz1an/Luu+8+06ZNmxyX142DsmXL2ipwvoRL8+jGQ5BuNPjl45XaxJonL9uSzH755Rf7mXzpn16DDf/4/7/SwZJz5Suva9eu5rnnnjOtW7e26eB8wfVI3759Y+YDABKLQAwIWaVKlUzFihXteMmSJU3lypXtePAiVIOCK08Xq8rzy0XzpWhqHS234m1H8CLVX8wiPekiu1+/fmbKlCl2/9E+MH36dDtNjTRs377dXrjrAl+lVkprX3vkkUdsIKBBpbbaP7X8NddcY6ZOnWqXUYntxIkTs11eFPzrpoD2wcGDB9s8zafSX91sEAV3Wp+W1TTx83rx5snNtsybN8/On8wOOugg06hRo8gNGr1WrVrVfvf6j27dutU+CxZdcq7Sbs0zbNgwG1zr8yvo1Xx9+vSx82n+xx57zK53zJgx5sorr7Tfj9bv8wEAiUcgBhQhXUDpolAWLlxoL678Ra1aOfMUMClP02Lp1auXGT58uH32LLfVCzdu3BhZX3A7/MWZhtGjR9sL5FTw+eefm7lz55ovv/zS5WQFGsrTsGjRIpebxedr8BfusnLlykh+sO+lLVu2RPI/+ugjl5tl/vz5kWmq7ul99tlnkfwvvvjC5Rrz/fffR/L1uwd98MEHkWm6uPZWrVoVyQ+Wlv7444+R/OgSTaX9NM3nqXRVeUuXLrUtBlapUsXm67dXsCIKyvTba9+YPXu2DQKUVmmsAi5tg6rAKvj3pbDVq1e3r0HZLa9pixcvtiW9fh9UUKD5VErbvn17uw59jmrVqtnt1DTNo3m1jJebeeJti/9ttC3++wr+19atWxfJV3DjqZTK52sI+vjjjyP533zzjcstGAVG2n59Du2zzZo1s5/b76cqIdd/1v+GOm4ceuihdjxI8//www+R6qCaX7+9NG3a1Obr+9H3BAAoPARiQMh0l9+XXOkiXHfjfZVDHxzpQkslDZ4uLnWR6S+0fbWi4MWfLiqvv/562wCHltdFsUodNK+/AA3SRadfX/R2pKI33njDDBkyZK/vRM/QKU/DuHHjXG4WfU9+WvBCecaMGZF8lSZ4CvR8/pNPPulysygI9tO+/vprl5vVf5PPf++991xuVmmGz3/88cddbhY9J+inbdiwweUa8+abb0byZ82a5XKzLqp9vi7Cg0aNGhWZFgxQ3377bZsXDOiiRQdVqtrnS0pV1U+BofarYCmu5okn1vIKJhQgKmDQeHbbo5IaleRo+YYNG0YCuaBY8wSDbC96WxSYim5k+O8reEND/w2f/+KLL7rcrIDa52sIUsmTz1+yZInLLRgfOOm31LHi2GOPNZs2bbLHjDJlytjgSf95/9n0vSrYjqb5dWMhFgV7tJQIAOEgEANCpjvOunjyF4sjR460QZR/TksXWw0aNLB3u30pmC6wBg4caIMzf4GlO/6aL0jBmS4+Vb1M46J5NZ/WH6TtUHAWvR2p6vbbbzfTpk2LPPcm+tzK0/CPf/zD5WZRFTo/TRe0np6l8fnXXXedyzU2SPX5CpaCdNHtp9WoUcPlGtO5c+dIvoJkT89S+fzo4EnBgJ8W/D1UOuTzb7rpJpdrbHU0nz927FiXm0UBo59Wu3Ztl2vMLbfcYvMU3OeWglJfUqpBJSi+GqOCHeWp+l88sZZX6ZJK3lSipot/BQHxqHphcHkFudGlPbHmifXMZPS23HPPPTZfQZP/voIN3lx77bWR/LvvvtvlZlXv9fkaggYNGhTJP/fcc11uweizaJ9QcKW+vY455hhbAqvg8LzzzrM3XVS12H8+HTtOOOEEt/QeOiaUL1/epQAARYVADAiRr8rVrVu3yEWgv+BTsKWLcuWpGp2e01Dpmb8Y10WYlvXLqTqRX8ZXRfLzKB2cX+u77bbb7LxaxlNw59eXm5YWkV50Qa7SIF+1TRfxGoK0v6iKmm4CqATKl8Yq+AxSfrAU18tueZXsKYCINZ9KaVXCJQqCFVz4UiptY/Tzi7mZJ9626Bm5wqTSp+xKC/Pi8MMPt4366FX/cQVkKlWM1eqk/v+xSsT0u2ubfDVL/Rb6rnbs2GHTAIBwEIgBQIZSkK+qebqIV8monqnq2bOnm7qHAnuVXKnUShfxCtqV50tgla+0SiX9c1mq2qjgQxf5sZa/+uqr7TNwSnvKE82nYEnPPkr0dqr6nW4iBG8qZDdPTtvSokULt5bC8euvv9rnCBNBAaeCKF+NWAGZL1XUoJJylXDrO/jpp59sKbtKxnzwpc8varxDXVZoPn3X+q4OPPBAOw0AEI5iu0+au9w4kLJ091ulPapWFl0FLZ4mTZqYd99917zzzjumcePGLjcz6CJV35kuTHXxliz69+9vW/HT76HfJTdUxVLPh6mFPHVYi9w76qij3FhmU8CixisKi54bVHCkhmDyq0SJEuawww5zqXCpxC3YCA3Sk0pX1ZVEbugZxZ07d7oUgPyiRAzIQCoFULWlZArCgHR18MEH79UKKgAAQiAGAEAhUklDly5dXAoAgCxUTURaoGpieqBqYriKFy/uxvDHH3+4seRUkN/qww8/tN0vBFsUzatk/35QcFRNBMJHiRiAAlMgrAGpRRfXDFlDYStoYx2xtjm3g7pLUMfVsabldgAAJB6BGAAAhUiNdSSq+XoAQPogEANQYOqcVwOA5KNm67/88kuXAgAkCwIxwFHfR+rUdOjQobZ/JPWvo7Q6Q1bVHp/2HcSqCXjl+UFNwft8La95o6dJvOVEndH699LzThr8dN/5rF9O6xEto/n8+/n8oOB6o+cJTtOr7xBX8/htUL6evwtWP9R8ej5Lr9FVEzXu3yuYr8/i84PfJZDODjjgAHPmmWe6VPhee+018+CDD7oUACBZEIgBUWbOnGkDBnWCqs5q1QjI3LlzzbJly8y8efPMwoULbVA0YsQIm7dr1y4zZ84c2ymq8v06GjVqFJn2yCOP2IAlu+UUlCgIVCe2mta5c2fz3HPP2fVpWu/evW1nrZqm5QcMGBAJmpYuXRp5PzVNH+TXO3LkyMiy2ga9pwYFWH6aXpX2n0Pvr+1QMKoH/RWc+WkLFiww1apVM1WqVLFpT9+dOvXdvn27HTSuPC2rz6rvVe+lTmjVwAaQ7sqXL28mTpzoUgAAZCEQA6Io2FH/WqVKlTJVq1a1AU7JkiVNxYoVTaVKlew8mj558mRTs2ZNm1bAFqSSIpVeiZY74ogj7Hh2y61du9asXr3anHbaaTZdr1490759ezuuaepw1q9Ty6uDWAVDovX75eJREKSgTMtqG7QtCsr0GfVeolellS/6HLVq1bLj/tVPW7Vqlf2u9N14Wv/s2bMj35kGBbKtW7c2s2bNiny3osBuyZIlkcAOQOHYb7/9aCETAJIQgRiQDwo4glUPX375ZTcle9ktp5Ii5Slwi6ZpKp3SNL/sfffdZ4OhaColC1ZDVAmeSsREwaXyfLVABYJjxoyJ5OtV6ejAUhRAKZBSQKXgSSVdPjjzVAKmZRXMBem9NL8aLPDbpWVVkqfPBqDwtGzZ0paCAwCSC4EYkA8KbhRw+Gp2d9xxh5uSveyWU5ClvFiBiabpYsov54dYDWSoxEtVCf08qqroS6aU1jq0DdOnT7cBk0rdFED5+TWoBCsWlbqpFEtVKlW10Jdueb4UMTqQ0/trflXPCr6PttOXDgLpSq0mHnfccS4FAEAWAjEgn9ShpYIalfao2l9uxVtOz1rpmStf3VBBm0qnRNPKlStnXn/9dZtWiZSqKfqGPLLj5/UNdPhgSYNKpRQ06b3El6YFG/MI8tvRt2/fmJ3DKuBStURVT9TnE9+Qx3nnnRd5Hk607douqiYCAIBMRCAG5IOepapfv74NZBo0aGCaNWtmS3hilWYFZbecgphu3brZhj1Ude/FF1+MPCOmaQMHDrSBjKaphEwlXfFKroJUajVs2DDTqVOnSPVDlU5p+ehp2i41FhLd4IfnAy19huhGOjxtk9bvqzuqSmLPnj3tOlW10Vev1OfUe0eXqgFILFWB1s0TAEByKbb7ImmXGwdSlkpcVPVOLf794x//cLnZa9KkiXn33XfNO++8Yxo3buxyk4dKlBSYKXiJFxilm/79+5t+/frZ30O/S26oQZE33njDtsCopvaBZDR//vwia8L+2WeftaXUo0aNcjnAvkqXLm3Kli3rUtlTzY6dO3e6FID8okQMSBKqoqdAwjdJr+qCai5fJUgoGD0Dp5YiuXBAUSnKfsQAAMmJQAxIEqqid9lll9nqgaq6p+bp1a8XjVnk3/fff29LS9VQwtatW20z3kCmOeecc2xLqQCA5MJVCZBE9HxVsFXBTKmSmGgqXfy///s/+0ze448/bhsYueGGG9xUIFxbtmyxXTcUlaOPPtrUqVPHpQAAyYJADEDa+Oqrr8xdd91lm9lXU/k7duwwBxxwgG2A5MADD3RzAeH69ddf7TNiAAAEEYgBSAvq8FrP4UydOtVe+P722282X9U8v/nmGzNkyBA7qO8yIJMsXrzYtsIKAEguBGIA0oICLg3R9t9//0i++mH76KOP7DgQloMPPjjXnb4Xhk8//TTSByEAIHkQiAFICy1atDD/+c9/bIMnxYsXNyVKlLD5KhlTn2c9evQwJ554on32DgiTmgXv0qWLSwEAkIVADEDaUEfSI0aMMO+995658MILbUCm58Qefvhhmq5Hxjr22GPN6aef7lIAgGRBIAYg7VSrVs088cQT5q233jLnn3++7Xz0pZdeclOB8BVlYx1qffWmm25yKQBAsiAQA5C2jj/+eDN+/Hjz9ttv00gHiszXX39dpM3XAwCSE4EYgLSnTrL79evnUkBmUT9m69atcykAQLIgEAMAoBCpLzt1rVBUXnvtNTNw4ECXAgAkCwIxAAAKUfny5W0H4wAABBGIAQCQxtSP3n77cboHgGTDkRkAgDTWqlUrM3LkSJcCACQLAjEAAAqRWk087rjjXAoAgCwEYgAAAAAQMgIxAADS2Msvv0z3DQCQhAjEAAAoREcccUSRtpq4detWWz0SAJBcCMQAAChkRdmPGAAgORGIAQCQxho1amTat2/vUgCAZEEgBgBAIdq2bZsZPny4S4XvmGOOMXXr1nUpAECyKLZ+/fpdbhxIWffff78ZPXq06dq1q8vJ2fPPP2/WrVtnrrnmGnP00Ue7XBSlefPmmfnz59vfQ79LbixdutS88cYbZvDgwba/pOxo/6hTp4656aabXA5Q+PR8VsOGDc3KlStdDpB8SpcubcqWLetS2du4caPZuXOnSwHILwIxpAUfiCFzEYghWRV1IPbOO++YTz/91HTu3NnlAPsiEAPCRyCGtPDAAw+4MWSqGjVqEIghKalq4lNPPWW6dOnicsL17LPPmtmzZ5tRo0a5HGBfBGJA+AjEAGQMAjGE4ffffzfnnHOO+eKLL1zOvho3bmwmTZrkUom1YsUK06RJE5eKTTevbrzxRpcCCMSAokBjHQAAJND+++9vunfvbo4//nizfv36vYbPP//cHHrooaZnz55u7sTT+15xxRW2BC76/adMmWIOP/xw06ZNGzc3AKCoEIgBAJBgV199tdmxY4dtSCbo6aefti0YnnrqqS6ncNxzzz32vX788UeXk2XQoEHmzjvvNCVKlHA5AICiQiAGAECC7bfffubuu+82Q4YMcTnG/PLLL+axxx6zQVJhO/bYY81FF11kHn/8cZdjzNy5c22Vsuuuu87lAACKEoEYAACF4Morr7TB16xZs2x6woQJpl69eqZ27do2Xdh69Ohhxo0bZ3766SebfvTRR+1zkpSGAUByIBADAKCQqFRM1QF/++03889//tPcddddbkrhU6lY06ZNzZNPPmkWLlxo1qxZk2PLogCA8BCIAQBQSC655BKza9cu0759e1O/fv3QSsM8PQ+mZ8UGDBhgGwgpXry4mwIAKGoEYgAAFCKVgs2cOdNWFQzbMcccY0vF1Kn0Nddc43IBAMmAfsQAZAz6Ectcw4cPd2NFY86cOaZhw4YuFa4ffvjBfPnll+akk05yOZnn+uuvN4cccohLIRb6EQPCRyAGIGMQiGWuZs2a2U6WkXlGjx5tFi9eTCCWAwIxIHwEYgCSRqlSpdxY4Zg4caKpUqVKoV+Qb9++3Y0hWSgQGzZsmGncuLHLQaZQK5EEYjkjEAPCRyAGIGlUqlTJ9r+UytSJ7+bNm10KyYJALHMRiOUOgRgQPhrrAJCyfv75Z9OhQwfz/vvvu5zECK5Xg8aVBwAAkCgEYgAQpWTJkva5krPPPtvlAAAAJBaBGICkcv/995tixYrZQeMSXSo1adKkyDT59NNPTd26de0ymia+VMuvy+eLxqPztb6WLVvaPPW75EvEvL59+9ppF198caTqYfR7JLpkDgAApC8CMQBJQ4HM+vXrbWMXGrZu3WqWL1/upsY3ffp08/bbb5tly5aZCRMm2GWUV7lyZduZ7rfffmtmz55tAyi9h8a1fuW/8sorkffQMyTKV0AWNGbMGNvaotalUrLHHnvM5g8ePDjyHmqevFOnTmbFihV2GgAAQHYIxAAkJVUPfPjhh03NmjVdTnxt27Y1FSpUsPOqr6YFCxa4KVk0TVUN9Tpr1izTqFEju36lJ0+eHHkPBVXKj6YOcVUSJs2bNzdLliwxK1eutEHdeeedZ/Pr1atn6tevT0MdAAAgVwjEACQNlTYpSFIz9sFqgzmpWrWqG9ujdevW9jVYbVBVCVXiFk/16tXd2N60/nhN6yvw0/o1XSVna9ascVMAAADiIxADkFQUQKmqn6oIqgphrOeuVq1a5cay+OAnOtDq06dPpGriiBEjzNq1a22pV15p/doe0bq2bNlix8uXL2+rQ+o9/NCqVSs7DQAAIDsEYgCSxrPPPrtXIxzq06ZixYp2fN68eTaQ8s95BSlgUxCm6atXrzannXaaXU+wRK1cuXJ2XSr18vNrXapyGCvYC5o5c6YNuERVG1Vyd9xxx5kTTzzRTJ061ebrOTM1GDJ37lybBgAAyA6BGICkcdVVV9kSLV/VTw1k6PktBT7XXHONqVWrli0x0zNbQXo+q0GDBnb6fffdZ5fp2LGjeeaZZ+y6FID558i0vErFtH6fn1Mz9e3btzcvvviiXZe2r2fPnjZfr3579d69evWy2wEAAJCTYrsvIna5cQAoUpUqVTL77Zfa94d27NhBgx1JqFmzZmbYsGGmcePGLgeZokSJEmbx4sW2VVTEV7p0aVsLITc2btxodu7c6VIA8osSMQAAAAAIGYEYAAAAAISMQAxA0vjhhx9si4SFNQwfPtw+6xVrWqIG37oiMo8ah9HzgsFBDbjkplPyeNSoTIcOHXLdlUNu+IZlEr2t2SmMzwEAqY5ADEDS0MVaYQ5qLfGTTz6JOS2RAzKXGnZRMO67M1ADLl27dk265waPOOKIfbpeUIM4Q4cODWUfVqumwRZSASATEYgBAFBI1JWCghz1P5fsmjdvbrt/UDcQAIDCRyAGAEAhWbBggalWrZqpUqWKTUdXCwyWCvl+7fy0WP3bKc9P06D5fWmb1q2uHfTqp6mEK7v1ZSe77dF2+3xVOfSlwdHVD2OVfGm6upnQQKkYgExGIAYAQIKMGTPG9lHngxT1ZTdw4EBTsmRJG6goMBo5cqQtJVPVwDlz5tjASdN69+5t+7Xz0wYMGGBWrFjh1pwVhClwUelaTn3fiToi37Ztm12f3qdTp07ZPgM2derUSNAYb3t8kKf+83wVTPXLN336dLeWnKkvP61LQ58+fVwuAGQeAjEgYOnSpWbUqFGmXbt25oQTTrAXGAyJH+rXr2/+9re/mSlTppitW7e6bx9IfdHPiCnQOP/8820Ao2Bs9OjRkSBKAdXXX39tx1UdUNUCVZVR1Cm5Aqnjjz/epl9++WUbhKk0SR2T54Y6RFd1Q1Gn5/rfqYRO9L7qhNwHjBoUYPmgUdujxnNUIibanoYNG0aWV8C5cOFCO67PqOAKAJA3BGKAM2PGDHP11VebBx54wLz55pvmxx9/dFOQaF9++aWZMGGC6d69u7n00kvNu+++66YA6SU6AFIw5QMflQip0QxRUKa8ihUr2nQ037DG66+/7nJypg7S/foUXOkmiBdsrEPvrSqNKv3yQZ7ynnvuObu8315VJVy1apUNJFXCpsDMT8trtUcAgDHF1q9fv8uNAxnr5ptvjlzgXHTRReaUU06xFxuHHHKIzUP+jB07NvK8iL7LK664wlZ9Ou6448yHH35oA7CPPvrITu/Ro4cNzAqTWq9TKcFNN93kcpApmjVrZoYNG2YaN27schJP+7pa5lT1QwU+oip+3bp1M40aNbKlXV26dLHdKKiESaVkPi3BaV52y/uqir6ULLg+BVKqiqhSZ82b3XpEy7Zo0cJWm9SxT+l+/fqZESNG5FgCp/dXFcwnn3zSbo/ew5eQKS09e/aMvL+m+fwwqiaWKFHCLF68mON5DkqXLm3Kli3rUtnbuHGj2blzp0sByC8CMWQ8VSV65ZVX7HMR9957r00ng+iLrFSjC7rOnTvb8bvuusve/T/wwANt2tPzKw8++KB56KGHbFp34HWhVlgIxDJXUQVi+h/7gEiCwY7+388//7ydpuNPMFBRQxl61X9Hz275/OB7qPpgcH2a9sgjj9j1KRBTidXEiRPtctHbESvo8wGVXvWcW6ztUamZBD+n1q3llB48eLB9fkzjqqKpZbRtBGLJj0AMCB9VE5HRdAGjIEwXE3rYPFmCsILQnWzfclpRWbRokbnzzjvtuC70VBIWHYSJTvwKxHQnXVq2bGkvmIBUFd1Yh4IhHWf0P9Cgvrp8lT6VvKv6oIImHYP0fJYCGk1TlUAFPQ0aNHBrzqJnttasWWOPV9Hr27Rpk3221dNxQAFT9HbE458HUyMdEr09CqgURGlQNUf/ORXgKcjSZ9AzafPmzbPTNJ+2IZbzzjvPVnX0LS4CQCaiRAwZS4GKLgbkiSeeMLfccosdTxb5LRHT54p1tzssukuqUqf//e9/9pm7n376yd711kVcdtTxre6mq2nvV1991eUmFiVimSuMErFkkuol6olEiVjuUCIGhI8SMWSsl156yb7eeOON+wRhuoDRnV4N0X3kqKqQ7wdId5B9Hz5+ul/OT/P5qqqjvOA6RYFTsF8hXUAFqVELP00XVV5wOb0qrfdTsPHGG2/YKkvKi0Xr8euM/nzB99C2+M+hwW+/Br+deg/d9db3ovzixYvbIEwndF34qOU33Y2P/lzRVKWqdu3atjRNjaUAAACkMwIxZKTff//dNgctrVq1sq+eAobs+sj5+OOPzdtvv22nV61a1Tz22GM2X/NoXi3jpwVbOBs/fry9I69potIfBT8K0FRlSMupFTM9HO+DOwUxhx9+uJ2mVsoUrAQDLr+cSpOUFr2HGhzxD+lH0+dTdSNVh/KfT9uiakV6fkNVmXyQOGvWLFuSpWpG8foUEjWFXaZMGfPHH3+YY445xuYpOHv44Yftq7Y9pxIx+etf/2pffZAMAACQrgjEkJF0of/555/b1sMuvPBCl7tHdn3k+CaeFbgEm4PWPP7BcwVbeo4jSM9yKDDSclqHAqLvvvvOTlNgpOBH0ydPnhypSqQgRqVQomc0fFPXCoRE/QCJn8fnZ0fBlf8Momc6lixZYoM7fR/qy0iNAGh71MeXpufUp5C2S/OpJEtN08u1115rX/PCL+N/HwD5oxsfuhGU6dUSASCZEYghIwWrJUbTBUx++sjRPH5+deCqkqOg6tWru7GsoKp8+fLmoIMOsiVi4h98D1ZbjEdBnkrctEx2oqsTPv3007a0r02bNpE8BXPqyFolZMEAS8GXqDU3TYvXp1CQWoATXfwFg1QvVpXPIFVNVKlYsMQSAAAgHRGIIeMEn0FSQBKLgjEFUhrU/LMCCF96FYsCCpVqaV4tM3fuXNtfVlAwaFFgs2XLFjuuErLRo0fb5ZTvW0TLjoIwzeerOcajgEh3xf1nUeCpAMlvpx/0nfhqjGrARNUT33vvPduwhbZPAZhaNPTVGf0QbHpaaR+I+eqJ0TS/X1afWeuORvVEAACQCQjEkHG++OIL+6oqibFaiFJjFcHSGgU9GmIFDdF8sKVqjareGKQSM5VQ+aDNPzOlEitf4qYSLv9+2fFVEn1VRP8sms/PjgItvb9/Dk2fV9vg01qHDwZ9VUSVipUrVy7yPr6kLdiwh6oS+mBVgVt+KRDTe+n5sw0bNrhcAACA9EIghozz1Vdf2Vc1ghFLdn3kxKNpeu5K1fW0jJ7DUmMWwVIw9RmkKou+OqE6OFWJlRrX0HtoOU3Te+fUsEX0cmrEQ2nlK2hSaZwCqlhVKrVubauvZhhcVvSqeTT4PH2+eH0KeStXrrSvailRLSeKX5eqOwaDtpzoM4iqUQIAAKQj+hFDxunbt68ZO3as6d69uxkyZIjLLTwqAVMgpxYJg4FLutH3quBT1RlV1bEgLrvsMtuXmFqkvPLKK11uwdGPWObKtH7EsAf9iOUO/YgB4aNEDBln3bp19jVeiRjyx5deHXvssfa1ICgRAwAA6Y5ADBnHN69OIJZYvuGQRARivoVJnhEDAADpiqqJyDgnnHCC+fHHH80rr7xiLr30UpeLglIVQrV0qGfO9PxbQbzwwgvm6quvNjVq1Eho1UQ1NnLdddfF7LYA6Y2qiZmLqom5Q9VEIHyUiAFICN9Ah5qmT1Zq6fHUU091KQAAgKJDiRgyzkUXXWQ+/fRT89RTT1EykkDt2rUz48ePN507dzb//Oc/XW7+DB482PTq1cv+Pg888IDLBfKPErHMRYlY7lAiBoSPEjFkHN/Z8KZNm+wrEkN9f8natWvta0H4Zv+POuoo+woAAJBuCMSQcY4++mj7SiCWWD7ATUQg5tehPtUAAADSEVUTkXFGjx5t7r//ftun18SJE10uCkoNYaj6lzpx/vbbb11u/qjz608++cT861//MqeffrrLBfLPV030zzIic5x33nlUTcwFqiYC4SMQQ8Z58cUXTceOHc2FF15o3njjDZdbtN5//33TsGFDO/7oo4+amTNnmj59+ti0gsZJkybZAGf58uWmS5cuZvjw4aZmzZo23aJFC3uRoY6Kp0yZEskPzrd582YbeGqdZ599diSt95E5c+bY/IJQ/2y+VOynn34ypUqVsuP5oQumH374wfz3v/+leiISQoEYF46ZS8dGArHsEYgB4SMQQ8ZZtGhRpNl6Xezn9sRTWHwwNXLkSBsMKehq06aNDY4kXiBWsWLFvYIrBXN+XpVIxQvE6tWrZ7p162YaNWpk86KDtoKoVq2aWbNmjQ12r7jiCpebN//v//0/07x5c7sts2bNcrkAgMJEIAaEj2fEkHHq1q1rS8MkGaomLliwwNSvX98GSKIm1ps2bWrHs7Ns2TJTtWrVyHJ6VVr52dHzVwpA9T6igEelcdqOglLfX6KgMr8UiEl+AzkAAIBUQCCGjOQv8p9++mn7mopU8jRmzBhbBbBYsWL2VWnlZ0elZc8995wtUdNyGu67775IS4UFcdVVV9nXN99803z22Wd2PC/UrYACsf33399cfvnlLhcAACD9EIghIykQq1Gjhi0FUtCQilT61b59e7N9+3bbibIfVN0wOwrAWrZsaQOy4HL+mbSCUBXJ2rVr2/Xlp1Rs2rRp9tX/PgAAAOmKQAwZKVjiMnnyZPtaVFRFUKVYCxcutGm1Pugb0VDQpLr4vrqhAsevv/7ajteqVWuv5fSsl6pd6lkxX9rlqxtqeb/OKlWq2D6/9D6i58e0DXq2rKD0nn379rXjKm3ctm2bHc8tqiUCAIBMQSCGjBWsnjh27Fg7XhTUCIea1e7UqZMNZGbPnh15RkzPb11zzTX2GS5NU99nJ5xwgp0WvZwCs169etlSKU1r27atbfRD09R4hkrPpGTJkmbgwIHmmWeesdMUtGmZnErScuvaa681J598sn0O7bbbbnO5OdO2q2pi8Bk+AACAdEWrichoqj734IMP2uBEAdCf//xnN6XoRDc1n4rUnL76//rtt9/M4MGDTY8ePdyU2J566ilz88032/EZM2bYpvgBAOGh1UQgfJSIIaOpNOmyyy4zP//8s23xT41doOAUSA0dOtSO9+zZ0w5//PGHTQep6uK9994bCcLUiAhBGAAAyASUiAG7KRDwz0xddNFF5pRTTrGlUUXRAeiPP/5oHnjgAXP99debk046yeWmJj3zNWrUKNt4x5/+9Cf7PR900EHmsMMOMx9++KF59913zUcffWTnValZ9+7d7TgAIFyUiAHhIxADHFWJUzCgQAjhUeuIAwYMMI0bN3Y5AICwEYgB4SMQAwKWLl1qS2nmz59vB4KywnHMMceYJk2a2IY5LrnkElOmTBk3BQBQFAjEgPARiAEAAGQ4AjEgfDTWAQAAAAAhIxADAAAAgJARiAEAAABAyAjEAAAAACBkBGIAAAAAEDICMQAAAAAIGYEYAAAAAISMQAwAAAAAQkYgBgAAAAAhIxADAAAAgJARiAEAAABAyAjEAAAAACBkBGIAAAAAEDICMQAAAAAIGYEYAAAAAISMQAwAAAAAQkYgBgAAAAAhIxADAAAAgJARiAEAAABAyAjEAAAAACBkBGIAAAAAEDICMQAAAAAIlTH/H9lAY8/J1n3hAAAAAElFTkSuQmCC;" vertex="1" parent="1">
          <mxGeometry x="556" y="162" width="866" height="521" as="geometry" />
        </mxCell>
        <mxCell id="EUon6yqRxLXq_V7a_OoF-1" value="" style="rounded=0;whiteSpace=wrap;html=1;fillColor=#e5e5e5;strokeColor=none;" vertex="1" parent="1">
          <mxGeometry x="213" y="162" width="334" height="522" as="geometry" />
        </mxCell>
        <mxCell id="EUon6yqRxLXq_V7a_OoF-2" value="&lt;font style=&quot;font-size: 15px;&quot;&gt;dr-manager-service&lt;/font&gt;" style="shape=process;whiteSpace=wrap;html=1;backgroundOutline=1;" vertex="1" parent="1">
          <mxGeometry x="309.5" y="558" width="141" height="80" as="geometry" />
        </mxCell>
        <mxCell id="EUon6yqRxLXq_V7a_OoF-21" style="edgeStyle=orthogonalEdgeStyle;rounded=0;orthogonalLoop=1;jettySize=auto;html=1;endArrow=none;endFill=0;startArrow=ERone;startFill=0;strokeWidth=2;exitX=1;exitY=0.5;exitDx=0;exitDy=0;" edge="1" parent="1" source="EUon6yqRxLXq_V7a_OoF-3">
          <mxGeometry relative="1" as="geometry">
            <mxPoint x="558" y="299.5" as="targetPoint" />
            <mxPoint x="370.5" y="299.5" as="sourcePoint" />
          </mxGeometry>
        </mxCell>
        <mxCell id="EUon6yqRxLXq_V7a_OoF-3" value="&lt;font style=&quot;font-size: 15px;&quot;&gt;&lt;b&gt;ProtectionGroup&lt;/b&gt;&lt;/font&gt;" style="rounded=0;whiteSpace=wrap;html=1;strokeWidth=4;" vertex="1" parent="1">
          <mxGeometry x="310" y="273" width="140" height="53" as="geometry" />
        </mxCell>
        <mxCell id="EUon6yqRxLXq_V7a_OoF-5" style="edgeStyle=orthogonalEdgeStyle;rounded=0;orthogonalLoop=1;jettySize=auto;html=1;entryX=0.5;entryY=1;entryDx=0;entryDy=0;dashed=1;exitX=0.5;exitY=0;exitDx=0;exitDy=0;" edge="1" parent="1" source="EUon6yqRxLXq_V7a_OoF-2" target="EUon6yqRxLXq_V7a_OoF-3">
          <mxGeometry relative="1" as="geometry" />
        </mxCell>
        <mxCell id="EUon6yqRxLXq_V7a_OoF-6" value="create/update/delete" style="edgeLabel;html=1;align=center;verticalAlign=middle;resizable=0;points=[];" vertex="1" connectable="0" parent="EUon6yqRxLXq_V7a_OoF-5">
          <mxGeometry x="0.0449" y="2" relative="1" as="geometry">
            <mxPoint as="offset" />
          </mxGeometry>
        </mxCell>
        <mxCell id="EUon6yqRxLXq_V7a_OoF-4" value="&lt;b&gt;&lt;font style=&quot;font-size: 20px;&quot;&gt;Disaster Recovery Manager&lt;/font&gt;&lt;/b&gt;" style="text;html=1;strokeColor=none;fillColor=none;align=center;verticalAlign=middle;whiteSpace=wrap;rounded=0;" vertex="1" parent="1">
          <mxGeometry x="245" y="184" width="270" height="47.999999999999986" as="geometry" />
        </mxCell>
      </root>
    </mxGraphModel>
  </diagram>
</mxfile>
